<mxfile host="Electron" modified="2021-08-02T14:27:28.941Z" agent="5.0 (Windows NT 10.0; Win64; x64) AppleWebKit/537.36 (KHTML, like Gecko) draw.io/14.6.13 Chrome/89.0.4389.128 Electron/12.0.7 Safari/537.36" etag="g20aNT2Oc_P1FqtmmwYc" compressed="false" version="14.6.13" type="device" pages="12">
  <diagram id="C5RBs43oDa-KdzZeNtuy" name="IIC架构">
    <mxGraphModel dx="1422" dy="832" grid="1" gridSize="10" guides="1" tooltips="1" connect="1" arrows="1" fold="1" page="1" pageScale="1" pageWidth="291" pageHeight="413" math="0" shadow="0">
      <root>
        <mxCell id="WIyWlLk6GJQsqaUBKTNV-0" />
        <mxCell id="WIyWlLk6GJQsqaUBKTNV-1" parent="WIyWlLk6GJQsqaUBKTNV-0" />
        <mxCell id="1OIRSxSWeVKFsnhn4t5F-5" value="Master" style="rounded=0;whiteSpace=wrap;html=1;" parent="WIyWlLk6GJQsqaUBKTNV-1" vertex="1">
          <mxGeometry x="240" y="380" width="80" height="82.5" as="geometry" />
        </mxCell>
        <mxCell id="1OIRSxSWeVKFsnhn4t5F-10" style="edgeStyle=orthogonalEdgeStyle;rounded=0;orthogonalLoop=1;jettySize=auto;html=1;exitDx=0;exitDy=0;endArrow=none;endFill=0;startArrow=none;" parent="WIyWlLk6GJQsqaUBKTNV-1" source="1OIRSxSWeVKFsnhn4t5F-13" edge="1">
          <mxGeometry relative="1" as="geometry">
            <mxPoint x="640" y="400" as="targetPoint" />
          </mxGeometry>
        </mxCell>
        <mxCell id="1OIRSxSWeVKFsnhn4t5F-6" value="SDA" style="text;html=1;strokeColor=none;fillColor=none;align=center;verticalAlign=middle;whiteSpace=wrap;rounded=0;" parent="WIyWlLk6GJQsqaUBKTNV-1" vertex="1">
          <mxGeometry x="280" y="390" width="40" height="20" as="geometry" />
        </mxCell>
        <mxCell id="1OIRSxSWeVKFsnhn4t5F-11" style="edgeStyle=orthogonalEdgeStyle;rounded=0;orthogonalLoop=1;jettySize=auto;html=1;exitX=1;exitY=0.5;exitDx=0;exitDy=0;endArrow=none;endFill=0;" parent="WIyWlLk6GJQsqaUBKTNV-1" source="1OIRSxSWeVKFsnhn4t5F-8" edge="1">
          <mxGeometry relative="1" as="geometry">
            <mxPoint x="640" y="441" as="targetPoint" />
            <Array as="points">
              <mxPoint x="640" y="441" />
              <mxPoint x="640" y="441" />
            </Array>
          </mxGeometry>
        </mxCell>
        <mxCell id="1OIRSxSWeVKFsnhn4t5F-8" value="SCL" style="text;html=1;strokeColor=none;fillColor=none;align=center;verticalAlign=middle;whiteSpace=wrap;rounded=0;" parent="WIyWlLk6GJQsqaUBKTNV-1" vertex="1">
          <mxGeometry x="280" y="431" width="40" height="20" as="geometry" />
        </mxCell>
        <mxCell id="1OIRSxSWeVKFsnhn4t5F-12" style="rounded=0;orthogonalLoop=1;jettySize=auto;html=1;exitX=0.25;exitY=0;exitDx=0;exitDy=0;endArrow=none;endFill=0;" parent="WIyWlLk6GJQsqaUBKTNV-1" source="1OIRSxSWeVKFsnhn4t5F-9" target="1OIRSxSWeVKFsnhn4t5F-13" edge="1">
          <mxGeometry relative="1" as="geometry">
            <mxPoint x="347.28571428571433" y="400" as="targetPoint" />
          </mxGeometry>
        </mxCell>
        <mxCell id="1OIRSxSWeVKFsnhn4t5F-15" style="edgeStyle=none;rounded=0;orthogonalLoop=1;jettySize=auto;html=1;exitX=0.75;exitY=0;exitDx=0;exitDy=0;endArrow=none;endFill=0;" parent="WIyWlLk6GJQsqaUBKTNV-1" source="1OIRSxSWeVKFsnhn4t5F-9" edge="1">
          <mxGeometry relative="1" as="geometry">
            <mxPoint x="395.55555555555554" y="440" as="targetPoint" />
          </mxGeometry>
        </mxCell>
        <mxCell id="1OIRSxSWeVKFsnhn4t5F-9" value="Slave" style="rounded=0;whiteSpace=wrap;html=1;" parent="WIyWlLk6GJQsqaUBKTNV-1" vertex="1">
          <mxGeometry x="343" y="480" width="70" height="60" as="geometry" />
        </mxCell>
        <mxCell id="1OIRSxSWeVKFsnhn4t5F-13" value="" style="shape=waypoint;sketch=0;size=6;pointerEvents=1;points=[];fillColor=none;resizable=0;rotatable=0;perimeter=centerPerimeter;snapToPoint=1;" parent="WIyWlLk6GJQsqaUBKTNV-1" vertex="1">
          <mxGeometry x="340" y="380" width="40" height="40" as="geometry" />
        </mxCell>
        <mxCell id="1OIRSxSWeVKFsnhn4t5F-14" value="" style="edgeStyle=orthogonalEdgeStyle;rounded=0;orthogonalLoop=1;jettySize=auto;html=1;exitX=1;exitY=0.5;exitDx=0;exitDy=0;endArrow=none;endFill=0;" parent="WIyWlLk6GJQsqaUBKTNV-1" source="1OIRSxSWeVKFsnhn4t5F-6" target="1OIRSxSWeVKFsnhn4t5F-13" edge="1">
          <mxGeometry relative="1" as="geometry">
            <mxPoint x="730" y="400.28571428571433" as="targetPoint" />
            <mxPoint x="320" y="400" as="sourcePoint" />
          </mxGeometry>
        </mxCell>
        <mxCell id="1OIRSxSWeVKFsnhn4t5F-16" value="" style="shape=waypoint;sketch=0;size=6;pointerEvents=1;points=[];fillColor=none;resizable=0;rotatable=0;perimeter=centerPerimeter;snapToPoint=1;" parent="WIyWlLk6GJQsqaUBKTNV-1" vertex="1">
          <mxGeometry x="371" y="420" width="50" height="40" as="geometry" />
        </mxCell>
        <mxCell id="1OIRSxSWeVKFsnhn4t5F-23" value="SDA" style="text;html=1;strokeColor=none;fillColor=none;align=center;verticalAlign=middle;whiteSpace=wrap;rounded=0;" parent="WIyWlLk6GJQsqaUBKTNV-1" vertex="1">
          <mxGeometry x="343" y="480" width="40" height="20" as="geometry" />
        </mxCell>
        <mxCell id="1OIRSxSWeVKFsnhn4t5F-24" value="SCL" style="text;html=1;strokeColor=none;fillColor=none;align=center;verticalAlign=middle;whiteSpace=wrap;rounded=0;" parent="WIyWlLk6GJQsqaUBKTNV-1" vertex="1">
          <mxGeometry x="375" y="480" width="40" height="20" as="geometry" />
        </mxCell>
        <mxCell id="1OIRSxSWeVKFsnhn4t5F-25" style="rounded=0;orthogonalLoop=1;jettySize=auto;html=1;exitX=0.25;exitY=0;exitDx=0;exitDy=0;endArrow=none;endFill=0;" parent="WIyWlLk6GJQsqaUBKTNV-1" source="1OIRSxSWeVKFsnhn4t5F-27" target="1OIRSxSWeVKFsnhn4t5F-28" edge="1">
          <mxGeometry relative="1" as="geometry">
            <mxPoint x="447.28571428571433" y="400" as="targetPoint" />
          </mxGeometry>
        </mxCell>
        <mxCell id="1OIRSxSWeVKFsnhn4t5F-26" style="edgeStyle=none;rounded=0;orthogonalLoop=1;jettySize=auto;html=1;exitX=0.75;exitY=0;exitDx=0;exitDy=0;endArrow=none;endFill=0;" parent="WIyWlLk6GJQsqaUBKTNV-1" source="1OIRSxSWeVKFsnhn4t5F-27" edge="1">
          <mxGeometry relative="1" as="geometry">
            <mxPoint x="495.55555555555566" y="440" as="targetPoint" />
          </mxGeometry>
        </mxCell>
        <mxCell id="1OIRSxSWeVKFsnhn4t5F-27" value="Slave" style="rounded=0;whiteSpace=wrap;html=1;" parent="WIyWlLk6GJQsqaUBKTNV-1" vertex="1">
          <mxGeometry x="443" y="480" width="70" height="60" as="geometry" />
        </mxCell>
        <mxCell id="1OIRSxSWeVKFsnhn4t5F-28" value="" style="shape=waypoint;sketch=0;size=6;pointerEvents=1;points=[];fillColor=none;resizable=0;rotatable=0;perimeter=centerPerimeter;snapToPoint=1;" parent="WIyWlLk6GJQsqaUBKTNV-1" vertex="1">
          <mxGeometry x="440" y="380" width="40" height="40" as="geometry" />
        </mxCell>
        <mxCell id="1OIRSxSWeVKFsnhn4t5F-29" value="" style="shape=waypoint;sketch=0;size=6;pointerEvents=1;points=[];fillColor=none;resizable=0;rotatable=0;perimeter=centerPerimeter;snapToPoint=1;" parent="WIyWlLk6GJQsqaUBKTNV-1" vertex="1">
          <mxGeometry x="471" y="420" width="50" height="40" as="geometry" />
        </mxCell>
        <mxCell id="1OIRSxSWeVKFsnhn4t5F-30" value="SDA" style="text;html=1;strokeColor=none;fillColor=none;align=center;verticalAlign=middle;whiteSpace=wrap;rounded=0;" parent="WIyWlLk6GJQsqaUBKTNV-1" vertex="1">
          <mxGeometry x="443" y="480" width="40" height="20" as="geometry" />
        </mxCell>
        <mxCell id="1OIRSxSWeVKFsnhn4t5F-31" value="SCL" style="text;html=1;strokeColor=none;fillColor=none;align=center;verticalAlign=middle;whiteSpace=wrap;rounded=0;" parent="WIyWlLk6GJQsqaUBKTNV-1" vertex="1">
          <mxGeometry x="475" y="480" width="40" height="20" as="geometry" />
        </mxCell>
        <mxCell id="1OIRSxSWeVKFsnhn4t5F-32" style="rounded=0;orthogonalLoop=1;jettySize=auto;html=1;exitX=0.25;exitY=0;exitDx=0;exitDy=0;endArrow=none;endFill=0;" parent="WIyWlLk6GJQsqaUBKTNV-1" source="1OIRSxSWeVKFsnhn4t5F-34" target="1OIRSxSWeVKFsnhn4t5F-35" edge="1">
          <mxGeometry relative="1" as="geometry">
            <mxPoint x="547.2857142857143" y="400" as="targetPoint" />
          </mxGeometry>
        </mxCell>
        <mxCell id="1OIRSxSWeVKFsnhn4t5F-33" style="edgeStyle=none;rounded=0;orthogonalLoop=1;jettySize=auto;html=1;exitX=0.75;exitY=0;exitDx=0;exitDy=0;endArrow=none;endFill=0;" parent="WIyWlLk6GJQsqaUBKTNV-1" source="1OIRSxSWeVKFsnhn4t5F-34" edge="1">
          <mxGeometry relative="1" as="geometry">
            <mxPoint x="595.5555555555557" y="440" as="targetPoint" />
          </mxGeometry>
        </mxCell>
        <mxCell id="1OIRSxSWeVKFsnhn4t5F-34" value="Slave" style="rounded=0;whiteSpace=wrap;html=1;" parent="WIyWlLk6GJQsqaUBKTNV-1" vertex="1">
          <mxGeometry x="543" y="480" width="70" height="60" as="geometry" />
        </mxCell>
        <mxCell id="1OIRSxSWeVKFsnhn4t5F-35" value="" style="shape=waypoint;sketch=0;size=6;pointerEvents=1;points=[];fillColor=none;resizable=0;rotatable=0;perimeter=centerPerimeter;snapToPoint=1;" parent="WIyWlLk6GJQsqaUBKTNV-1" vertex="1">
          <mxGeometry x="540" y="380" width="40" height="40" as="geometry" />
        </mxCell>
        <mxCell id="1OIRSxSWeVKFsnhn4t5F-36" value="" style="shape=waypoint;sketch=0;size=6;pointerEvents=1;points=[];fillColor=none;resizable=0;rotatable=0;perimeter=centerPerimeter;snapToPoint=1;" parent="WIyWlLk6GJQsqaUBKTNV-1" vertex="1">
          <mxGeometry x="571" y="420" width="50" height="40" as="geometry" />
        </mxCell>
        <mxCell id="1OIRSxSWeVKFsnhn4t5F-37" value="SDA" style="text;html=1;strokeColor=none;fillColor=none;align=center;verticalAlign=middle;whiteSpace=wrap;rounded=0;" parent="WIyWlLk6GJQsqaUBKTNV-1" vertex="1">
          <mxGeometry x="543" y="480" width="40" height="20" as="geometry" />
        </mxCell>
        <mxCell id="1OIRSxSWeVKFsnhn4t5F-38" value="SCL" style="text;html=1;strokeColor=none;fillColor=none;align=center;verticalAlign=middle;whiteSpace=wrap;rounded=0;" parent="WIyWlLk6GJQsqaUBKTNV-1" vertex="1">
          <mxGeometry x="575" y="480" width="40" height="20" as="geometry" />
        </mxCell>
      </root>
    </mxGraphModel>
  </diagram>
  <diagram id="mXUPvU_GbDihl89NN1b3" name="memcpy">
    <mxGraphModel dx="2031" dy="1189" grid="1" gridSize="10" guides="1" tooltips="1" connect="1" arrows="1" fold="1" page="1" pageScale="1" pageWidth="291" pageHeight="413" math="0" shadow="0">
      <root>
        <mxCell id="KwemWAl2vJE_EFoXvnWo-0" />
        <mxCell id="KwemWAl2vJE_EFoXvnWo-1" parent="KwemWAl2vJE_EFoXvnWo-0" />
        <mxCell id="T_0C6AcMLZedfynC6MvA-24" value="" style="group" parent="KwemWAl2vJE_EFoXvnWo-1" vertex="1" connectable="0">
          <mxGeometry x="60" y="250" width="600" height="200" as="geometry" />
        </mxCell>
        <mxCell id="KwemWAl2vJE_EFoXvnWo-44" value="" style="group" parent="T_0C6AcMLZedfynC6MvA-24" vertex="1" connectable="0">
          <mxGeometry width="600" height="200" as="geometry" />
        </mxCell>
        <mxCell id="KwemWAl2vJE_EFoXvnWo-42" value="" style="group" parent="KwemWAl2vJE_EFoXvnWo-44" vertex="1" connectable="0">
          <mxGeometry width="600" height="171" as="geometry" />
        </mxCell>
        <mxCell id="KwemWAl2vJE_EFoXvnWo-2" value="" style="shape=table;html=1;whiteSpace=wrap;startSize=0;container=1;collapsible=0;childLayout=tableLayout;fontSize=18;" parent="KwemWAl2vJE_EFoXvnWo-42" vertex="1">
          <mxGeometry y="60" width="600" height="40" as="geometry" />
        </mxCell>
        <mxCell id="KwemWAl2vJE_EFoXvnWo-3" value="" style="shape=partialRectangle;html=1;whiteSpace=wrap;collapsible=0;dropTarget=0;pointerEvents=0;fillColor=none;top=0;left=0;bottom=0;right=0;points=[[0,0.5],[1,0.5]];portConstraint=eastwest;" parent="KwemWAl2vJE_EFoXvnWo-2" vertex="1">
          <mxGeometry width="600" height="40" as="geometry" />
        </mxCell>
        <mxCell id="KwemWAl2vJE_EFoXvnWo-4" value="&lt;font style=&quot;font-size: 26px;&quot;&gt;...&lt;/font&gt;" style="shape=partialRectangle;html=1;whiteSpace=wrap;connectable=0;overflow=hidden;fillColor=none;top=0;left=0;bottom=0;right=0;fontSize=26;" parent="KwemWAl2vJE_EFoXvnWo-3" vertex="1">
          <mxGeometry width="60" height="40" as="geometry" />
        </mxCell>
        <mxCell id="KwemWAl2vJE_EFoXvnWo-5" value="" style="shape=partialRectangle;html=1;whiteSpace=wrap;connectable=0;overflow=hidden;fillColor=none;top=0;left=0;bottom=0;right=0;" parent="KwemWAl2vJE_EFoXvnWo-3" vertex="1">
          <mxGeometry x="60" width="60" height="40" as="geometry" />
        </mxCell>
        <mxCell id="KwemWAl2vJE_EFoXvnWo-6" value="" style="shape=partialRectangle;html=1;whiteSpace=wrap;connectable=0;overflow=hidden;fillColor=none;top=0;left=0;bottom=0;right=0;" parent="KwemWAl2vJE_EFoXvnWo-3" vertex="1">
          <mxGeometry x="120" width="60" height="40" as="geometry" />
        </mxCell>
        <mxCell id="KwemWAl2vJE_EFoXvnWo-7" value="" style="shape=partialRectangle;html=1;whiteSpace=wrap;connectable=0;overflow=hidden;fillColor=none;top=0;left=0;bottom=0;right=0;" parent="KwemWAl2vJE_EFoXvnWo-3" vertex="1">
          <mxGeometry x="180" width="60" height="40" as="geometry" />
        </mxCell>
        <mxCell id="KwemWAl2vJE_EFoXvnWo-8" value="" style="shape=partialRectangle;html=1;whiteSpace=wrap;connectable=0;overflow=hidden;fillColor=none;top=0;left=0;bottom=0;right=0;" parent="KwemWAl2vJE_EFoXvnWo-3" vertex="1">
          <mxGeometry x="240" width="60" height="40" as="geometry" />
        </mxCell>
        <mxCell id="KwemWAl2vJE_EFoXvnWo-9" value="" style="shape=partialRectangle;html=1;whiteSpace=wrap;connectable=0;overflow=hidden;fillColor=none;top=0;left=0;bottom=0;right=0;" parent="KwemWAl2vJE_EFoXvnWo-3" vertex="1">
          <mxGeometry x="300" width="60" height="40" as="geometry" />
        </mxCell>
        <mxCell id="KwemWAl2vJE_EFoXvnWo-10" value="" style="shape=partialRectangle;html=1;whiteSpace=wrap;connectable=0;overflow=hidden;fillColor=none;top=0;left=0;bottom=0;right=0;" parent="KwemWAl2vJE_EFoXvnWo-3" vertex="1">
          <mxGeometry x="360" width="60" height="40" as="geometry" />
        </mxCell>
        <mxCell id="KwemWAl2vJE_EFoXvnWo-11" value="" style="shape=partialRectangle;html=1;whiteSpace=wrap;connectable=0;overflow=hidden;fillColor=none;top=0;left=0;bottom=0;right=0;" parent="KwemWAl2vJE_EFoXvnWo-3" vertex="1">
          <mxGeometry x="420" width="60" height="40" as="geometry" />
        </mxCell>
        <mxCell id="KwemWAl2vJE_EFoXvnWo-12" value="" style="shape=partialRectangle;html=1;whiteSpace=wrap;connectable=0;overflow=hidden;fillColor=none;top=0;left=0;bottom=0;right=0;" parent="KwemWAl2vJE_EFoXvnWo-3" vertex="1">
          <mxGeometry x="480" width="60" height="40" as="geometry" />
        </mxCell>
        <mxCell id="KwemWAl2vJE_EFoXvnWo-13" value="&lt;span style=&quot;font-size: 26px&quot;&gt;...&lt;/span&gt;" style="shape=partialRectangle;html=1;whiteSpace=wrap;connectable=0;overflow=hidden;fillColor=none;top=0;left=0;bottom=0;right=0;" parent="KwemWAl2vJE_EFoXvnWo-3" vertex="1">
          <mxGeometry x="540" width="60" height="40" as="geometry" />
        </mxCell>
        <mxCell id="KwemWAl2vJE_EFoXvnWo-17" value="" style="endArrow=classic;html=1;fontSize=18;entryX=0.101;entryY=1.01;entryDx=0;entryDy=0;entryPerimeter=0;" parent="KwemWAl2vJE_EFoXvnWo-42" edge="1">
          <mxGeometry width="50" height="50" relative="1" as="geometry">
            <mxPoint x="59.10514018691589" y="171" as="sourcePoint" />
            <mxPoint x="59.60000000000002" y="100.39999999999998" as="targetPoint" />
          </mxGeometry>
        </mxCell>
        <mxCell id="KwemWAl2vJE_EFoXvnWo-19" value="" style="endArrow=classic;html=1;fontSize=18;entryX=0.084;entryY=1.025;entryDx=0;entryDy=0;entryPerimeter=0;" parent="KwemWAl2vJE_EFoXvnWo-42" source="KwemWAl2vJE_EFoXvnWo-18" edge="1">
          <mxGeometry width="50" height="50" relative="1" as="geometry">
            <mxPoint x="340" y="209" as="sourcePoint" />
            <mxPoint x="240.48000000000002" y="100" as="targetPoint" />
          </mxGeometry>
        </mxCell>
        <mxCell id="KwemWAl2vJE_EFoXvnWo-21" value="" style="endArrow=classic;startArrow=classic;html=1;fontSize=18;elbow=vertical;edgeStyle=elbowEdgeStyle;entryX=0.798;entryY=-0.011;entryDx=0;entryDy=0;entryPerimeter=0;" parent="KwemWAl2vJE_EFoXvnWo-42" target="KwemWAl2vJE_EFoXvnWo-3" edge="1">
          <mxGeometry width="50" height="50" relative="1" as="geometry">
            <mxPoint x="240" y="60" as="sourcePoint" />
            <mxPoint x="540" y="59" as="targetPoint" />
            <Array as="points">
              <mxPoint x="390" y="30" />
              <mxPoint x="390" y="30" />
            </Array>
          </mxGeometry>
        </mxCell>
        <mxCell id="KwemWAl2vJE_EFoXvnWo-22" value="count" style="text;html=1;align=center;verticalAlign=middle;resizable=0;points=[];autosize=1;strokeColor=none;fontSize=18;" parent="KwemWAl2vJE_EFoXvnWo-42" vertex="1">
          <mxGeometry x="370" width="60" height="30" as="geometry" />
        </mxCell>
        <mxCell id="T_0C6AcMLZedfynC6MvA-12" value="" style="endArrow=none;startArrow=classic;html=1;fontSize=20;exitX=0.147;exitY=1.055;exitDx=0;exitDy=0;exitPerimeter=0;edgeStyle=orthogonalEdgeStyle;fillColor=#d5e8d4;strokeColor=#82b366;startFill=1;endFill=0;" parent="KwemWAl2vJE_EFoXvnWo-42" edge="1">
          <mxGeometry width="50" height="50" relative="1" as="geometry">
            <mxPoint x="150.03000000000003" y="100.20000000000005" as="sourcePoint" />
            <mxPoint x="331.83" y="100.00000000000011" as="targetPoint" />
            <Array as="points">
              <mxPoint x="150" y="130" />
              <mxPoint x="332" y="130" />
            </Array>
          </mxGeometry>
        </mxCell>
        <mxCell id="T_0C6AcMLZedfynC6MvA-27" value="&lt;font style=&quot;font-size: 15px&quot;&gt;2&lt;/font&gt;" style="edgeLabel;html=1;align=center;verticalAlign=middle;resizable=0;points=[];fontSize=20;" parent="T_0C6AcMLZedfynC6MvA-12" vertex="1" connectable="0">
          <mxGeometry x="-0.5322" relative="1" as="geometry">
            <mxPoint x="-7" as="offset" />
          </mxGeometry>
        </mxCell>
        <mxCell id="T_0C6AcMLZedfynC6MvA-14" value="" style="endArrow=none;startArrow=classic;html=1;fontSize=20;exitX=0.147;exitY=1.055;exitDx=0;exitDy=0;exitPerimeter=0;edgeStyle=orthogonalEdgeStyle;fillColor=#f8cecc;strokeColor=#b85450;startFill=1;endFill=0;" parent="KwemWAl2vJE_EFoXvnWo-42" edge="1">
          <mxGeometry width="50" height="50" relative="1" as="geometry">
            <mxPoint x="279.9999999999999" y="100.19999999999993" as="sourcePoint" />
            <mxPoint x="461.79999999999984" y="100.00000000000011" as="targetPoint" />
            <Array as="points">
              <mxPoint x="280" y="150" />
              <mxPoint x="462" y="150" />
            </Array>
          </mxGeometry>
        </mxCell>
        <mxCell id="T_0C6AcMLZedfynC6MvA-29" value="4" style="edgeLabel;html=1;align=center;verticalAlign=middle;resizable=0;points=[];fontSize=15;" parent="T_0C6AcMLZedfynC6MvA-14" vertex="1" connectable="0">
          <mxGeometry x="-0.2842" relative="1" as="geometry">
            <mxPoint x="-31" as="offset" />
          </mxGeometry>
        </mxCell>
        <mxCell id="T_0C6AcMLZedfynC6MvA-8" value="" style="group" parent="KwemWAl2vJE_EFoXvnWo-44" vertex="1" connectable="0">
          <mxGeometry x="40" y="170" width="220" height="30" as="geometry" />
        </mxCell>
        <mxCell id="KwemWAl2vJE_EFoXvnWo-16" value="dst" style="text;html=1;align=center;verticalAlign=middle;resizable=0;points=[];autosize=1;strokeColor=none;fontSize=18;" parent="T_0C6AcMLZedfynC6MvA-8" vertex="1">
          <mxGeometry width="40" height="30" as="geometry" />
        </mxCell>
        <mxCell id="KwemWAl2vJE_EFoXvnWo-18" value="src" style="text;html=1;align=center;verticalAlign=middle;resizable=0;points=[];autosize=1;strokeColor=none;fontSize=18;" parent="T_0C6AcMLZedfynC6MvA-8" vertex="1">
          <mxGeometry x="180" width="40" height="30" as="geometry" />
        </mxCell>
        <mxCell id="T_0C6AcMLZedfynC6MvA-11" value="" style="endArrow=none;startArrow=classic;html=1;fontSize=20;exitX=0.147;exitY=1.055;exitDx=0;exitDy=0;exitPerimeter=0;edgeStyle=orthogonalEdgeStyle;fillColor=#dae8fc;strokeColor=#6c8ebf;startFill=1;endFill=0;" parent="T_0C6AcMLZedfynC6MvA-24" source="KwemWAl2vJE_EFoXvnWo-3" edge="1">
          <mxGeometry width="50" height="50" relative="1" as="geometry">
            <mxPoint x="340" y="230" as="sourcePoint" />
            <mxPoint x="270" y="102" as="targetPoint" />
            <Array as="points">
              <mxPoint x="88" y="120" />
              <mxPoint x="270" y="120" />
            </Array>
          </mxGeometry>
        </mxCell>
        <mxCell id="T_0C6AcMLZedfynC6MvA-26" value="&lt;font style=&quot;font-size: 15px&quot;&gt;1&lt;/font&gt;" style="edgeLabel;html=1;align=center;verticalAlign=middle;resizable=0;points=[];fontSize=20;" parent="T_0C6AcMLZedfynC6MvA-11" vertex="1" connectable="0">
          <mxGeometry x="-0.6162" y="-1" relative="1" as="geometry">
            <mxPoint as="offset" />
          </mxGeometry>
        </mxCell>
        <mxCell id="T_0C6AcMLZedfynC6MvA-13" value="" style="endArrow=none;startArrow=classic;html=1;fontSize=15;exitX=0.147;exitY=1.055;exitDx=0;exitDy=0;exitPerimeter=0;edgeStyle=orthogonalEdgeStyle;fillColor=#ffe6cc;strokeColor=#d79b00;startFill=1;endFill=0;" parent="T_0C6AcMLZedfynC6MvA-24" edge="1">
          <mxGeometry width="50" height="50" relative="1" as="geometry">
            <mxPoint x="209.09999999999997" y="100.19999999999993" as="sourcePoint" />
            <mxPoint x="390.8999999999999" y="100.00000000000011" as="targetPoint" />
            <Array as="points">
              <mxPoint x="209.07" y="140" />
              <mxPoint x="391.07" y="140" />
            </Array>
          </mxGeometry>
        </mxCell>
        <mxCell id="T_0C6AcMLZedfynC6MvA-28" value="3" style="edgeLabel;html=1;align=center;verticalAlign=middle;resizable=0;points=[];fontSize=15;" parent="T_0C6AcMLZedfynC6MvA-13" vertex="1" connectable="0">
          <mxGeometry x="-0.5675" relative="1" as="geometry">
            <mxPoint as="offset" />
          </mxGeometry>
        </mxCell>
        <mxCell id="KwemWAl2vJE_EFoXvnWo-43" value="" style="group" parent="KwemWAl2vJE_EFoXvnWo-1" vertex="1" connectable="0">
          <mxGeometry x="60" y="480" width="600" height="200" as="geometry" />
        </mxCell>
        <mxCell id="KwemWAl2vJE_EFoXvnWo-24" value="" style="shape=table;html=1;whiteSpace=wrap;startSize=0;container=1;collapsible=0;childLayout=tableLayout;fontSize=18;" parent="KwemWAl2vJE_EFoXvnWo-43" vertex="1">
          <mxGeometry y="60" width="600" height="40" as="geometry" />
        </mxCell>
        <mxCell id="KwemWAl2vJE_EFoXvnWo-25" value="" style="shape=partialRectangle;html=1;whiteSpace=wrap;collapsible=0;dropTarget=0;pointerEvents=0;fillColor=none;top=0;left=0;bottom=0;right=0;points=[[0,0.5],[1,0.5]];portConstraint=eastwest;" parent="KwemWAl2vJE_EFoXvnWo-24" vertex="1">
          <mxGeometry width="600" height="40" as="geometry" />
        </mxCell>
        <mxCell id="KwemWAl2vJE_EFoXvnWo-26" value="&lt;font style=&quot;font-size: 26px;&quot;&gt;...&lt;/font&gt;" style="shape=partialRectangle;html=1;whiteSpace=wrap;connectable=0;overflow=hidden;fillColor=none;top=0;left=0;bottom=0;right=0;fontSize=26;" parent="KwemWAl2vJE_EFoXvnWo-25" vertex="1">
          <mxGeometry width="60" height="40" as="geometry" />
        </mxCell>
        <mxCell id="KwemWAl2vJE_EFoXvnWo-27" value="" style="shape=partialRectangle;html=1;whiteSpace=wrap;connectable=0;overflow=hidden;fillColor=none;top=0;left=0;bottom=0;right=0;" parent="KwemWAl2vJE_EFoXvnWo-25" vertex="1">
          <mxGeometry x="60" width="60" height="40" as="geometry" />
        </mxCell>
        <mxCell id="KwemWAl2vJE_EFoXvnWo-28" value="" style="shape=partialRectangle;html=1;whiteSpace=wrap;connectable=0;overflow=hidden;fillColor=none;top=0;left=0;bottom=0;right=0;" parent="KwemWAl2vJE_EFoXvnWo-25" vertex="1">
          <mxGeometry x="120" width="60" height="40" as="geometry" />
        </mxCell>
        <mxCell id="KwemWAl2vJE_EFoXvnWo-29" value="" style="shape=partialRectangle;html=1;whiteSpace=wrap;connectable=0;overflow=hidden;fillColor=none;top=0;left=0;bottom=0;right=0;" parent="KwemWAl2vJE_EFoXvnWo-25" vertex="1">
          <mxGeometry x="180" width="60" height="40" as="geometry" />
        </mxCell>
        <mxCell id="KwemWAl2vJE_EFoXvnWo-30" value="" style="shape=partialRectangle;html=1;whiteSpace=wrap;connectable=0;overflow=hidden;fillColor=none;top=0;left=0;bottom=0;right=0;" parent="KwemWAl2vJE_EFoXvnWo-25" vertex="1">
          <mxGeometry x="240" width="60" height="40" as="geometry" />
        </mxCell>
        <mxCell id="KwemWAl2vJE_EFoXvnWo-31" value="" style="shape=partialRectangle;html=1;whiteSpace=wrap;connectable=0;overflow=hidden;fillColor=none;top=0;left=0;bottom=0;right=0;" parent="KwemWAl2vJE_EFoXvnWo-25" vertex="1">
          <mxGeometry x="300" width="70" height="40" as="geometry" />
        </mxCell>
        <mxCell id="KwemWAl2vJE_EFoXvnWo-32" value="" style="shape=partialRectangle;html=1;whiteSpace=wrap;connectable=0;overflow=hidden;fillColor=none;top=0;left=0;bottom=0;right=0;" parent="KwemWAl2vJE_EFoXvnWo-25" vertex="1">
          <mxGeometry x="370" width="50" height="40" as="geometry" />
        </mxCell>
        <mxCell id="KwemWAl2vJE_EFoXvnWo-33" value="" style="shape=partialRectangle;html=1;whiteSpace=wrap;connectable=0;overflow=hidden;fillColor=none;top=0;left=0;bottom=0;right=0;" parent="KwemWAl2vJE_EFoXvnWo-25" vertex="1">
          <mxGeometry x="420" width="60" height="40" as="geometry" />
        </mxCell>
        <mxCell id="KwemWAl2vJE_EFoXvnWo-34" value="" style="shape=partialRectangle;html=1;whiteSpace=wrap;connectable=0;overflow=hidden;fillColor=none;top=0;left=0;bottom=0;right=0;" parent="KwemWAl2vJE_EFoXvnWo-25" vertex="1">
          <mxGeometry x="480" width="60" height="40" as="geometry" />
        </mxCell>
        <mxCell id="KwemWAl2vJE_EFoXvnWo-35" value="&lt;span style=&quot;font-size: 26px&quot;&gt;...&lt;/span&gt;" style="shape=partialRectangle;html=1;whiteSpace=wrap;connectable=0;overflow=hidden;fillColor=none;top=0;left=0;bottom=0;right=0;" parent="KwemWAl2vJE_EFoXvnWo-25" vertex="1">
          <mxGeometry x="540" width="60" height="40" as="geometry" />
        </mxCell>
        <mxCell id="KwemWAl2vJE_EFoXvnWo-36" value="src" style="text;html=1;align=center;verticalAlign=middle;resizable=0;points=[];autosize=1;strokeColor=none;fontSize=18;" parent="KwemWAl2vJE_EFoXvnWo-43" vertex="1">
          <mxGeometry x="40" y="170" width="40" height="30" as="geometry" />
        </mxCell>
        <mxCell id="KwemWAl2vJE_EFoXvnWo-37" value="" style="endArrow=classic;html=1;fontSize=18;entryX=0.101;entryY=1.01;entryDx=0;entryDy=0;entryPerimeter=0;" parent="KwemWAl2vJE_EFoXvnWo-43" edge="1">
          <mxGeometry width="50" height="50" relative="1" as="geometry">
            <mxPoint x="59.10514018691583" y="171" as="sourcePoint" />
            <mxPoint x="59.59999999999991" y="100.39999999999998" as="targetPoint" />
          </mxGeometry>
        </mxCell>
        <mxCell id="KwemWAl2vJE_EFoXvnWo-38" value="dst" style="text;html=1;align=center;verticalAlign=middle;resizable=0;points=[];autosize=1;strokeColor=none;fontSize=18;" parent="KwemWAl2vJE_EFoXvnWo-43" vertex="1">
          <mxGeometry x="220" y="170" width="40" height="30" as="geometry" />
        </mxCell>
        <mxCell id="KwemWAl2vJE_EFoXvnWo-39" value="" style="endArrow=classic;html=1;fontSize=18;entryX=0.084;entryY=1.025;entryDx=0;entryDy=0;entryPerimeter=0;" parent="KwemWAl2vJE_EFoXvnWo-43" source="KwemWAl2vJE_EFoXvnWo-38" edge="1">
          <mxGeometry width="50" height="50" relative="1" as="geometry">
            <mxPoint x="340" y="209" as="sourcePoint" />
            <mxPoint x="240.48000000000002" y="100" as="targetPoint" />
          </mxGeometry>
        </mxCell>
        <mxCell id="KwemWAl2vJE_EFoXvnWo-40" value="" style="endArrow=classic;startArrow=classic;html=1;fontSize=18;elbow=vertical;edgeStyle=elbowEdgeStyle;entryX=0.501;entryY=-0.032;entryDx=0;entryDy=0;entryPerimeter=0;" parent="KwemWAl2vJE_EFoXvnWo-43" target="KwemWAl2vJE_EFoXvnWo-25" edge="1">
          <mxGeometry width="50" height="50" relative="1" as="geometry">
            <mxPoint x="60" y="60" as="sourcePoint" />
            <mxPoint x="370" y="59" as="targetPoint" />
            <Array as="points">
              <mxPoint x="210" y="30" />
              <mxPoint x="210" y="30" />
            </Array>
          </mxGeometry>
        </mxCell>
        <mxCell id="KwemWAl2vJE_EFoXvnWo-41" value="count" style="text;html=1;align=center;verticalAlign=middle;resizable=0;points=[];autosize=1;strokeColor=none;fontSize=18;" parent="KwemWAl2vJE_EFoXvnWo-43" vertex="1">
          <mxGeometry x="190" width="60" height="30" as="geometry" />
        </mxCell>
        <mxCell id="T_0C6AcMLZedfynC6MvA-20" value="" style="endArrow=none;startArrow=classic;html=1;fontSize=20;exitX=0.147;exitY=1.055;exitDx=0;exitDy=0;exitPerimeter=0;edgeStyle=orthogonalEdgeStyle;fillColor=#dae8fc;strokeColor=#6c8ebf;startFill=1;endFill=0;" parent="KwemWAl2vJE_EFoXvnWo-43" edge="1">
          <mxGeometry width="50" height="50" relative="1" as="geometry">
            <mxPoint x="271.8" y="100" as="sourcePoint" />
            <mxPoint x="89.99999999999994" y="100.19999999999993" as="targetPoint" />
            <Array as="points">
              <mxPoint x="271.8" y="118" />
              <mxPoint x="89.80000000000001" y="118" />
            </Array>
          </mxGeometry>
        </mxCell>
        <mxCell id="T_0C6AcMLZedfynC6MvA-30" value="1" style="edgeLabel;html=1;align=center;verticalAlign=middle;resizable=0;points=[];fontSize=15;" parent="T_0C6AcMLZedfynC6MvA-20" vertex="1" connectable="0">
          <mxGeometry x="0.5226" y="-2" relative="1" as="geometry">
            <mxPoint as="offset" />
          </mxGeometry>
        </mxCell>
        <mxCell id="T_0C6AcMLZedfynC6MvA-23" value="" style="endArrow=none;startArrow=classic;html=1;fontSize=20;exitX=0.147;exitY=1.055;exitDx=0;exitDy=0;exitPerimeter=0;edgeStyle=orthogonalEdgeStyle;fillColor=#f8cecc;strokeColor=#b85450;startFill=1;endFill=0;" parent="KwemWAl2vJE_EFoXvnWo-43" edge="1">
          <mxGeometry width="50" height="50" relative="1" as="geometry">
            <mxPoint x="461.7999999999997" y="100.00000000000023" as="sourcePoint" />
            <mxPoint x="280" y="100.20000000000005" as="targetPoint" />
            <Array as="points">
              <mxPoint x="462" y="150.0000000000001" />
              <mxPoint x="280" y="150.0000000000001" />
            </Array>
          </mxGeometry>
        </mxCell>
        <mxCell id="T_0C6AcMLZedfynC6MvA-33" value="4" style="edgeLabel;html=1;align=center;verticalAlign=middle;resizable=0;points=[];fontSize=15;" parent="T_0C6AcMLZedfynC6MvA-23" vertex="1" connectable="0">
          <mxGeometry x="-0.4219" y="2" relative="1" as="geometry">
            <mxPoint x="10" as="offset" />
          </mxGeometry>
        </mxCell>
        <mxCell id="T_0C6AcMLZedfynC6MvA-21" value="" style="endArrow=none;startArrow=classic;html=1;fontSize=20;exitX=0.147;exitY=1.055;exitDx=0;exitDy=0;exitPerimeter=0;edgeStyle=orthogonalEdgeStyle;fillColor=#d5e8d4;strokeColor=#82b366;startFill=1;endFill=0;" parent="KwemWAl2vJE_EFoXvnWo-1" edge="1">
          <mxGeometry x="60" y="480" width="50" height="50" as="geometry">
            <mxPoint x="391.79999999999995" y="580.0000000000001" as="sourcePoint" />
            <mxPoint x="209.99999999999997" y="580.2" as="targetPoint" />
            <Array as="points">
              <mxPoint x="391.97" y="610" />
              <mxPoint x="209.97" y="610" />
            </Array>
          </mxGeometry>
        </mxCell>
        <mxCell id="T_0C6AcMLZedfynC6MvA-31" value="2" style="edgeLabel;html=1;align=center;verticalAlign=middle;resizable=0;points=[];fontSize=15;" parent="T_0C6AcMLZedfynC6MvA-21" vertex="1" connectable="0">
          <mxGeometry x="0.537" y="1" relative="1" as="geometry">
            <mxPoint as="offset" />
          </mxGeometry>
        </mxCell>
        <mxCell id="T_0C6AcMLZedfynC6MvA-22" value="" style="endArrow=none;startArrow=classic;html=1;fontSize=20;exitX=0.147;exitY=1.055;exitDx=0;exitDy=0;exitPerimeter=0;edgeStyle=orthogonalEdgeStyle;fillColor=#ffe6cc;strokeColor=#d79b00;startFill=1;endFill=0;" parent="KwemWAl2vJE_EFoXvnWo-1" edge="1">
          <mxGeometry x="60" y="480" width="50" height="50" as="geometry">
            <mxPoint x="450.89999999999986" y="580.0000000000001" as="sourcePoint" />
            <mxPoint x="269.0999999999999" y="580.1999999999999" as="targetPoint" />
            <Array as="points">
              <mxPoint x="451.07" y="620" />
              <mxPoint x="269.07" y="620" />
            </Array>
          </mxGeometry>
        </mxCell>
        <mxCell id="T_0C6AcMLZedfynC6MvA-32" value="3" style="edgeLabel;html=1;align=center;verticalAlign=middle;resizable=0;points=[];fontSize=15;" parent="T_0C6AcMLZedfynC6MvA-22" vertex="1" connectable="0">
          <mxGeometry x="-0.5551" relative="1" as="geometry">
            <mxPoint as="offset" />
          </mxGeometry>
        </mxCell>
      </root>
    </mxGraphModel>
  </diagram>
  <diagram id="2Wz7JHpJPuWgIVnCegIw" name="for循环">
    <mxGraphModel dx="2031" dy="1189" grid="1" gridSize="10" guides="1" tooltips="1" connect="1" arrows="1" fold="1" page="1" pageScale="1" pageWidth="291" pageHeight="413" math="0" shadow="0">
      <root>
        <mxCell id="D5SJoX_AB9TNBsuC2Pgj-0" />
        <mxCell id="D5SJoX_AB9TNBsuC2Pgj-1" parent="D5SJoX_AB9TNBsuC2Pgj-0" />
        <mxCell id="D5SJoX_AB9TNBsuC2Pgj-4" value="" style="edgeStyle=orthogonalEdgeStyle;rounded=0;orthogonalLoop=1;jettySize=auto;html=1;fontSize=25;" parent="D5SJoX_AB9TNBsuC2Pgj-1" source="D5SJoX_AB9TNBsuC2Pgj-2" target="D5SJoX_AB9TNBsuC2Pgj-3" edge="1">
          <mxGeometry relative="1" as="geometry" />
        </mxCell>
        <mxCell id="D5SJoX_AB9TNBsuC2Pgj-2" value="init" style="rounded=1;whiteSpace=wrap;html=1;fontSize=20;" parent="D5SJoX_AB9TNBsuC2Pgj-1" vertex="1">
          <mxGeometry x="320" y="160" width="120" height="40" as="geometry" />
        </mxCell>
        <mxCell id="D5SJoX_AB9TNBsuC2Pgj-9" value="" style="edgeStyle=orthogonalEdgeStyle;rounded=0;orthogonalLoop=1;jettySize=auto;html=1;fontSize=20;" parent="D5SJoX_AB9TNBsuC2Pgj-1" source="D5SJoX_AB9TNBsuC2Pgj-3" target="D5SJoX_AB9TNBsuC2Pgj-8" edge="1">
          <mxGeometry relative="1" as="geometry" />
        </mxCell>
        <mxCell id="D5SJoX_AB9TNBsuC2Pgj-10" value="True" style="edgeLabel;html=1;align=center;verticalAlign=middle;resizable=0;points=[];fontSize=20;" parent="D5SJoX_AB9TNBsuC2Pgj-9" vertex="1" connectable="0">
          <mxGeometry x="-0.2593" y="4" relative="1" as="geometry">
            <mxPoint as="offset" />
          </mxGeometry>
        </mxCell>
        <mxCell id="D5SJoX_AB9TNBsuC2Pgj-17" style="edgeStyle=orthogonalEdgeStyle;rounded=0;orthogonalLoop=1;jettySize=auto;html=1;exitX=1;exitY=0.5;exitDx=0;exitDy=0;entryX=0.5;entryY=0;entryDx=0;entryDy=0;fontSize=20;" parent="D5SJoX_AB9TNBsuC2Pgj-1" source="D5SJoX_AB9TNBsuC2Pgj-3" target="D5SJoX_AB9TNBsuC2Pgj-15" edge="1">
          <mxGeometry relative="1" as="geometry">
            <Array as="points">
              <mxPoint x="480" y="280" />
              <mxPoint x="480" y="530" />
              <mxPoint x="380" y="530" />
            </Array>
          </mxGeometry>
        </mxCell>
        <mxCell id="D5SJoX_AB9TNBsuC2Pgj-18" value="False" style="edgeLabel;html=1;align=center;verticalAlign=middle;resizable=0;points=[];fontSize=20;" parent="D5SJoX_AB9TNBsuC2Pgj-17" vertex="1" connectable="0">
          <mxGeometry x="-0.3684" y="3" relative="1" as="geometry">
            <mxPoint y="-32" as="offset" />
          </mxGeometry>
        </mxCell>
        <mxCell id="D5SJoX_AB9TNBsuC2Pgj-3" value="condition" style="rhombus;whiteSpace=wrap;html=1;rounded=1;fontSize=20;" parent="D5SJoX_AB9TNBsuC2Pgj-1" vertex="1">
          <mxGeometry x="320" y="240" width="120" height="80" as="geometry" />
        </mxCell>
        <mxCell id="D5SJoX_AB9TNBsuC2Pgj-12" value="" style="edgeStyle=orthogonalEdgeStyle;rounded=0;orthogonalLoop=1;jettySize=auto;html=1;fontSize=20;" parent="D5SJoX_AB9TNBsuC2Pgj-1" source="D5SJoX_AB9TNBsuC2Pgj-8" target="D5SJoX_AB9TNBsuC2Pgj-11" edge="1">
          <mxGeometry relative="1" as="geometry" />
        </mxCell>
        <mxCell id="D5SJoX_AB9TNBsuC2Pgj-8" value="statements" style="rounded=1;whiteSpace=wrap;html=1;fontSize=20;" parent="D5SJoX_AB9TNBsuC2Pgj-1" vertex="1">
          <mxGeometry x="320" y="380" width="120" height="40" as="geometry" />
        </mxCell>
        <mxCell id="D5SJoX_AB9TNBsuC2Pgj-13" style="rounded=0;orthogonalLoop=1;jettySize=auto;html=1;exitX=0;exitY=0.5;exitDx=0;exitDy=0;fontSize=20;edgeStyle=elbowEdgeStyle;" parent="D5SJoX_AB9TNBsuC2Pgj-1" source="D5SJoX_AB9TNBsuC2Pgj-11" edge="1">
          <mxGeometry relative="1" as="geometry">
            <mxPoint x="380" y="220" as="targetPoint" />
            <Array as="points">
              <mxPoint x="280" y="360" />
            </Array>
          </mxGeometry>
        </mxCell>
        <mxCell id="D5SJoX_AB9TNBsuC2Pgj-11" value="increment" style="rounded=1;whiteSpace=wrap;html=1;fontSize=20;" parent="D5SJoX_AB9TNBsuC2Pgj-1" vertex="1">
          <mxGeometry x="320" y="460" width="120" height="40" as="geometry" />
        </mxCell>
        <mxCell id="D5SJoX_AB9TNBsuC2Pgj-15" value="finish" style="rounded=1;whiteSpace=wrap;html=1;fontSize=20;" parent="D5SJoX_AB9TNBsuC2Pgj-1" vertex="1">
          <mxGeometry x="320" y="560" width="120" height="40" as="geometry" />
        </mxCell>
      </root>
    </mxGraphModel>
  </diagram>
  <diagram id="bRyGQ3mw3RWu5MGY-UyW" name="命题">
    <mxGraphModel dx="1422" dy="832" grid="1" gridSize="10" guides="1" tooltips="1" connect="1" arrows="1" fold="1" page="1" pageScale="1" pageWidth="291" pageHeight="413" math="1" shadow="0">
      <root>
        <mxCell id="Mv0RszHPl2NJhEbNQyGA-0" />
        <mxCell id="Mv0RszHPl2NJhEbNQyGA-1" parent="Mv0RszHPl2NJhEbNQyGA-0" />
        <mxCell id="Mv0RszHPl2NJhEbNQyGA-2" style="edgeStyle=orthogonalEdgeStyle;rounded=0;orthogonalLoop=1;jettySize=auto;html=1;exitX=1;exitY=0.5;exitDx=0;exitDy=0;entryX=0;entryY=0.5;entryDx=0;entryDy=0;startArrow=classic;startFill=1;" parent="Mv0RszHPl2NJhEbNQyGA-1" source="Mv0RszHPl2NJhEbNQyGA-5" target="Mv0RszHPl2NJhEbNQyGA-7" edge="1">
          <mxGeometry relative="1" as="geometry" />
        </mxCell>
        <mxCell id="Mv0RszHPl2NJhEbNQyGA-3" style="edgeStyle=orthogonalEdgeStyle;rounded=0;orthogonalLoop=1;jettySize=auto;html=1;exitX=0.5;exitY=1;exitDx=0;exitDy=0;entryX=0.5;entryY=0;entryDx=0;entryDy=0;startArrow=classic;startFill=1;" parent="Mv0RszHPl2NJhEbNQyGA-1" source="Mv0RszHPl2NJhEbNQyGA-5" target="Mv0RszHPl2NJhEbNQyGA-10" edge="1">
          <mxGeometry relative="1" as="geometry" />
        </mxCell>
        <mxCell id="Mv0RszHPl2NJhEbNQyGA-4" style="rounded=0;orthogonalLoop=1;jettySize=auto;html=1;exitX=1;exitY=1;exitDx=0;exitDy=0;entryX=0;entryY=0;entryDx=0;entryDy=0;startArrow=classic;startFill=1;" parent="Mv0RszHPl2NJhEbNQyGA-1" source="Mv0RszHPl2NJhEbNQyGA-5" target="Mv0RszHPl2NJhEbNQyGA-11" edge="1">
          <mxGeometry relative="1" as="geometry" />
        </mxCell>
        <mxCell id="Mv0RszHPl2NJhEbNQyGA-5" value="原命题&lt;br&gt;若\(p\)则`q`" style="rounded=0;whiteSpace=wrap;html=1;" parent="Mv0RszHPl2NJhEbNQyGA-1" vertex="1">
          <mxGeometry x="200" y="140" width="80" height="40" as="geometry" />
        </mxCell>
        <mxCell id="Mv0RszHPl2NJhEbNQyGA-6" style="edgeStyle=orthogonalEdgeStyle;rounded=0;orthogonalLoop=1;jettySize=auto;html=1;exitX=0.5;exitY=1;exitDx=0;exitDy=0;entryX=0.5;entryY=0;entryDx=0;entryDy=0;startArrow=classic;startFill=1;" parent="Mv0RszHPl2NJhEbNQyGA-1" source="Mv0RszHPl2NJhEbNQyGA-7" target="Mv0RszHPl2NJhEbNQyGA-11" edge="1">
          <mxGeometry relative="1" as="geometry" />
        </mxCell>
        <mxCell id="Mv0RszHPl2NJhEbNQyGA-7" value="逆命题&lt;br&gt;若`q`则`p`" style="rounded=0;whiteSpace=wrap;html=1;" parent="Mv0RszHPl2NJhEbNQyGA-1" vertex="1">
          <mxGeometry x="440" y="140" width="80" height="40" as="geometry" />
        </mxCell>
        <mxCell id="Mv0RszHPl2NJhEbNQyGA-8" style="edgeStyle=orthogonalEdgeStyle;rounded=0;orthogonalLoop=1;jettySize=auto;html=1;exitX=1;exitY=0.5;exitDx=0;exitDy=0;entryX=0;entryY=0.5;entryDx=0;entryDy=0;startArrow=classic;startFill=1;" parent="Mv0RszHPl2NJhEbNQyGA-1" source="Mv0RszHPl2NJhEbNQyGA-10" target="Mv0RszHPl2NJhEbNQyGA-11" edge="1">
          <mxGeometry relative="1" as="geometry" />
        </mxCell>
        <mxCell id="Mv0RszHPl2NJhEbNQyGA-9" style="edgeStyle=none;rounded=0;orthogonalLoop=1;jettySize=auto;html=1;exitX=1;exitY=0;exitDx=0;exitDy=0;entryX=-0.018;entryY=1.096;entryDx=0;entryDy=0;entryPerimeter=0;startArrow=classic;startFill=1;" parent="Mv0RszHPl2NJhEbNQyGA-1" source="Mv0RszHPl2NJhEbNQyGA-10" target="Mv0RszHPl2NJhEbNQyGA-7" edge="1">
          <mxGeometry relative="1" as="geometry" />
        </mxCell>
        <mxCell id="Mv0RszHPl2NJhEbNQyGA-10" value="否命题&lt;br&gt;若`\neg p`则`\neg q`" style="rounded=0;whiteSpace=wrap;html=1;movable=1;resizable=1;rotatable=1;deletable=1;editable=1;connectable=1;" parent="Mv0RszHPl2NJhEbNQyGA-1" vertex="1">
          <mxGeometry x="200" y="300" width="80" height="40" as="geometry" />
        </mxCell>
        <mxCell id="Mv0RszHPl2NJhEbNQyGA-11" value="逆否命题&lt;br&gt;若`\neg q`则`\neg p`" style="rounded=0;whiteSpace=wrap;html=1;movable=1;resizable=1;rotatable=1;deletable=1;editable=1;connectable=1;" parent="Mv0RszHPl2NJhEbNQyGA-1" vertex="1">
          <mxGeometry x="440" y="300" width="80" height="40" as="geometry" />
        </mxCell>
        <mxCell id="Mv0RszHPl2NJhEbNQyGA-12" value="互逆命题，真假无关" style="text;html=1;align=center;verticalAlign=middle;resizable=0;points=[];autosize=1;strokeColor=none;" parent="Mv0RszHPl2NJhEbNQyGA-1" vertex="1">
          <mxGeometry x="310" y="140" width="120" height="20" as="geometry" />
        </mxCell>
        <mxCell id="Mv0RszHPl2NJhEbNQyGA-13" value="互逆命题，真假无关" style="text;html=1;align=center;verticalAlign=middle;resizable=0;points=[];autosize=1;strokeColor=none;" parent="Mv0RszHPl2NJhEbNQyGA-1" vertex="1">
          <mxGeometry x="300" y="320" width="120" height="20" as="geometry" />
        </mxCell>
        <mxCell id="Mv0RszHPl2NJhEbNQyGA-14" value="&lt;span style=&quot;font-family: helvetica; font-size: 12px; font-style: normal; font-weight: 400; letter-spacing: normal; text-align: center; text-indent: 0px; text-transform: none; word-spacing: 0px; display: inline; float: none;&quot;&gt;&lt;font color=&quot;#000033&quot;&gt;互为逆否&lt;/font&gt;&lt;/span&gt;" style="text;whiteSpace=wrap;html=1;rotation=36;labelBackgroundColor=#ffffff;" parent="Mv0RszHPl2NJhEbNQyGA-1" vertex="1">
          <mxGeometry x="300" y="189" width="50" height="20" as="geometry" />
        </mxCell>
        <mxCell id="Mv0RszHPl2NJhEbNQyGA-15" value="&lt;span style=&quot;font-family: helvetica; font-size: 12px; font-style: normal; font-weight: 400; letter-spacing: normal; text-align: center; text-indent: 0px; text-transform: none; word-spacing: 0px; display: inline; float: none;&quot;&gt;同真同假&lt;/span&gt;" style="text;whiteSpace=wrap;html=1;rotation=36;labelBackgroundColor=none;fontColor=#000033;" parent="Mv0RszHPl2NJhEbNQyGA-1" vertex="1">
          <mxGeometry x="387" y="254" width="50" height="20" as="geometry" />
        </mxCell>
        <mxCell id="Mv0RszHPl2NJhEbNQyGA-16" value="&lt;span style=&quot;font-family: helvetica; font-size: 12px; font-style: normal; font-weight: 400; letter-spacing: normal; text-align: center; text-indent: 0px; text-transform: none; word-spacing: 0px; display: inline; float: none;&quot;&gt;同真同假&lt;/span&gt;" style="text;whiteSpace=wrap;html=1;rotation=324;labelBackgroundColor=#FFFFFF;fontColor=#000033;" parent="Mv0RszHPl2NJhEbNQyGA-1" vertex="1">
          <mxGeometry x="374" y="188" width="50" height="20" as="geometry" />
        </mxCell>
        <mxCell id="Mv0RszHPl2NJhEbNQyGA-17" value="&lt;span style=&quot;font-family: helvetica; font-size: 12px; font-style: normal; font-weight: 400; letter-spacing: normal; text-align: center; text-indent: 0px; text-transform: none; word-spacing: 0px; display: inline; float: none;&quot;&gt;互为逆否&lt;/span&gt;" style="text;whiteSpace=wrap;html=1;rotation=323;labelBackgroundColor=#ffffff;" parent="Mv0RszHPl2NJhEbNQyGA-1" vertex="1">
          <mxGeometry x="285" y="254" width="50" height="20" as="geometry" />
        </mxCell>
      </root>
    </mxGraphModel>
  </diagram>
  <diagram id="d_p5O5_0I3u5emlJIKfE" name="进程">
    <mxGraphModel dx="1422" dy="832" grid="1" gridSize="10" guides="1" tooltips="1" connect="1" arrows="1" fold="1" page="1" pageScale="1" pageWidth="291" pageHeight="413" math="0" shadow="0">
      <root>
        <mxCell id="6Tewm_QLx__If4BaZzMc-0" />
        <mxCell id="6Tewm_QLx__If4BaZzMc-1" parent="6Tewm_QLx__If4BaZzMc-0" />
        <mxCell id="6Tewm_QLx__If4BaZzMc-4" style="rounded=0;orthogonalLoop=1;jettySize=auto;html=1;exitX=1;exitY=0.5;exitDx=0;exitDy=0;entryX=0.5;entryY=0;entryDx=0;entryDy=0;startArrow=classic;startFill=1;endArrow=none;endFill=0;edgeStyle=orthogonalEdgeStyle;" parent="6Tewm_QLx__If4BaZzMc-1" target="6Tewm_QLx__If4BaZzMc-11" edge="1">
          <mxGeometry relative="1" as="geometry">
            <mxPoint x="485" y="290" as="targetPoint" />
            <mxPoint x="439.99999999999943" y="180" as="sourcePoint" />
            <Array as="points">
              <mxPoint x="480" y="180" />
            </Array>
          </mxGeometry>
        </mxCell>
        <mxCell id="6Tewm_QLx__If4BaZzMc-5" value="时间片完" style="edgeLabel;html=1;align=center;verticalAlign=middle;resizable=0;points=[];" parent="6Tewm_QLx__If4BaZzMc-4" vertex="1" connectable="0">
          <mxGeometry x="0.0544" y="-5" relative="1" as="geometry">
            <mxPoint x="5" y="16" as="offset" />
          </mxGeometry>
        </mxCell>
        <mxCell id="6Tewm_QLx__If4BaZzMc-12" style="edgeStyle=orthogonalEdgeStyle;rounded=0;orthogonalLoop=1;jettySize=auto;html=1;exitX=0.75;exitY=1;exitDx=0;exitDy=0;entryX=0;entryY=0.25;entryDx=0;entryDy=0;startArrow=none;startFill=0;endArrow=classic;endFill=1;" parent="6Tewm_QLx__If4BaZzMc-1" source="6Tewm_QLx__If4BaZzMc-10" target="6Tewm_QLx__If4BaZzMc-11" edge="1">
          <mxGeometry relative="1" as="geometry">
            <Array as="points">
              <mxPoint x="400" y="200" />
              <mxPoint x="400" y="290" />
            </Array>
          </mxGeometry>
        </mxCell>
        <mxCell id="6Tewm_QLx__If4BaZzMc-13" value="进程调度" style="edgeLabel;html=1;align=center;verticalAlign=middle;resizable=0;points=[];" parent="6Tewm_QLx__If4BaZzMc-12" vertex="1" connectable="0">
          <mxGeometry x="-0.3325" y="-1" relative="1" as="geometry">
            <mxPoint as="offset" />
          </mxGeometry>
        </mxCell>
        <mxCell id="6Tewm_QLx__If4BaZzMc-10" value="就绪" style="rounded=0;whiteSpace=wrap;html=1;" parent="6Tewm_QLx__If4BaZzMc-1" vertex="1">
          <mxGeometry x="370" y="160" width="70" height="40" as="geometry" />
        </mxCell>
        <mxCell id="DdTw7Y0Wmzo1oQKFq6NW-1" style="edgeStyle=orthogonalEdgeStyle;rounded=0;orthogonalLoop=1;jettySize=auto;html=1;exitX=0;exitY=0.5;exitDx=0;exitDy=0;entryX=1;entryY=0.5;entryDx=0;entryDy=0;startArrow=none;startFill=0;endArrow=classic;endFill=1;" parent="6Tewm_QLx__If4BaZzMc-1" source="6Tewm_QLx__If4BaZzMc-11" target="DdTw7Y0Wmzo1oQKFq6NW-0" edge="1">
          <mxGeometry relative="1" as="geometry" />
        </mxCell>
        <mxCell id="DdTw7Y0Wmzo1oQKFq6NW-2" value="I/O请求" style="edgeLabel;html=1;align=center;verticalAlign=middle;resizable=0;points=[];" parent="DdTw7Y0Wmzo1oQKFq6NW-1" vertex="1" connectable="0">
          <mxGeometry x="0.2543" y="1" relative="1" as="geometry">
            <mxPoint x="13" y="-1" as="offset" />
          </mxGeometry>
        </mxCell>
        <mxCell id="6Tewm_QLx__If4BaZzMc-11" value="执行" style="rounded=0;whiteSpace=wrap;html=1;" parent="6Tewm_QLx__If4BaZzMc-1" vertex="1">
          <mxGeometry x="450" y="280" width="70" height="40" as="geometry" />
        </mxCell>
        <mxCell id="DdTw7Y0Wmzo1oQKFq6NW-3" style="edgeStyle=orthogonalEdgeStyle;rounded=0;orthogonalLoop=1;jettySize=auto;html=1;exitX=0.5;exitY=0;exitDx=0;exitDy=0;entryX=0;entryY=0.5;entryDx=0;entryDy=0;startArrow=none;startFill=0;endArrow=classic;endFill=1;" parent="6Tewm_QLx__If4BaZzMc-1" source="DdTw7Y0Wmzo1oQKFq6NW-0" target="6Tewm_QLx__If4BaZzMc-10" edge="1">
          <mxGeometry relative="1" as="geometry" />
        </mxCell>
        <mxCell id="DdTw7Y0Wmzo1oQKFq6NW-4" value="I/O完成" style="edgeLabel;html=1;align=center;verticalAlign=middle;resizable=0;points=[];" parent="DdTw7Y0Wmzo1oQKFq6NW-3" vertex="1" connectable="0">
          <mxGeometry x="-0.2744" relative="1" as="geometry">
            <mxPoint y="4" as="offset" />
          </mxGeometry>
        </mxCell>
        <mxCell id="DdTw7Y0Wmzo1oQKFq6NW-0" value="阻塞" style="rounded=0;whiteSpace=wrap;html=1;" parent="6Tewm_QLx__If4BaZzMc-1" vertex="1">
          <mxGeometry x="290" y="280" width="70" height="40" as="geometry" />
        </mxCell>
      </root>
    </mxGraphModel>
  </diagram>
  <diagram id="jskC9VBcUKbhSjcKmkKi" name="网络服务器模型">
    <mxGraphModel dx="2844" dy="1664" grid="1" gridSize="10" guides="1" tooltips="1" connect="1" arrows="1" fold="1" page="1" pageScale="1" pageWidth="291" pageHeight="413" math="0" shadow="0">
      <root>
        <mxCell id="E7JEQy9dzRYhBQNzx4xL-0" />
        <mxCell id="E7JEQy9dzRYhBQNzx4xL-1" parent="E7JEQy9dzRYhBQNzx4xL-0" />
        <mxCell id="WusB1_47_Qe87K__4kS_-0" value="" style="edgeStyle=orthogonalEdgeStyle;rounded=0;orthogonalLoop=1;jettySize=auto;html=1;" parent="E7JEQy9dzRYhBQNzx4xL-1" source="WusB1_47_Qe87K__4kS_-1" target="WusB1_47_Qe87K__4kS_-3" edge="1">
          <mxGeometry relative="1" as="geometry" />
        </mxCell>
        <mxCell id="WusB1_47_Qe87K__4kS_-1" value="服务器端" style="rounded=1;whiteSpace=wrap;html=1;" parent="E7JEQy9dzRYhBQNzx4xL-1" vertex="1">
          <mxGeometry x="80" y="180" width="80" height="30" as="geometry" />
        </mxCell>
        <mxCell id="WusB1_47_Qe87K__4kS_-2" value="" style="edgeStyle=orthogonalEdgeStyle;rounded=0;orthogonalLoop=1;jettySize=auto;html=1;" parent="E7JEQy9dzRYhBQNzx4xL-1" source="WusB1_47_Qe87K__4kS_-3" target="WusB1_47_Qe87K__4kS_-5" edge="1">
          <mxGeometry relative="1" as="geometry" />
        </mxCell>
        <mxCell id="WusB1_47_Qe87K__4kS_-3" value="socket()" style="whiteSpace=wrap;html=1;rounded=1;" parent="E7JEQy9dzRYhBQNzx4xL-1" vertex="1">
          <mxGeometry x="80" y="240" width="80" height="30" as="geometry" />
        </mxCell>
        <mxCell id="WusB1_47_Qe87K__4kS_-4" value="" style="edgeStyle=orthogonalEdgeStyle;rounded=0;orthogonalLoop=1;jettySize=auto;html=1;" parent="E7JEQy9dzRYhBQNzx4xL-1" source="WusB1_47_Qe87K__4kS_-5" target="WusB1_47_Qe87K__4kS_-7" edge="1">
          <mxGeometry relative="1" as="geometry" />
        </mxCell>
        <mxCell id="WusB1_47_Qe87K__4kS_-5" value="bind()" style="whiteSpace=wrap;html=1;rounded=1;" parent="E7JEQy9dzRYhBQNzx4xL-1" vertex="1">
          <mxGeometry x="80" y="300" width="80" height="30" as="geometry" />
        </mxCell>
        <mxCell id="WusB1_47_Qe87K__4kS_-6" value="" style="edgeStyle=orthogonalEdgeStyle;rounded=0;orthogonalLoop=1;jettySize=auto;html=1;" parent="E7JEQy9dzRYhBQNzx4xL-1" source="WusB1_47_Qe87K__4kS_-7" target="WusB1_47_Qe87K__4kS_-10" edge="1">
          <mxGeometry relative="1" as="geometry" />
        </mxCell>
        <mxCell id="WusB1_47_Qe87K__4kS_-7" value="listen()" style="whiteSpace=wrap;html=1;rounded=1;" parent="E7JEQy9dzRYhBQNzx4xL-1" vertex="1">
          <mxGeometry x="80" y="360" width="80" height="30" as="geometry" />
        </mxCell>
        <mxCell id="WusB1_47_Qe87K__4kS_-8" value="" style="edgeStyle=orthogonalEdgeStyle;rounded=0;orthogonalLoop=1;jettySize=auto;html=1;" parent="E7JEQy9dzRYhBQNzx4xL-1" source="WusB1_47_Qe87K__4kS_-10" target="WusB1_47_Qe87K__4kS_-13" edge="1">
          <mxGeometry relative="1" as="geometry" />
        </mxCell>
        <mxCell id="WusB1_47_Qe87K__4kS_-9" value="阻塞直到接收到&lt;br&gt;客户端连接请求" style="edgeLabel;html=1;align=center;verticalAlign=middle;resizable=0;points=[];" parent="WusB1_47_Qe87K__4kS_-8" vertex="1" connectable="0">
          <mxGeometry x="-0.25" y="-1" relative="1" as="geometry">
            <mxPoint x="1" y="-14" as="offset" />
          </mxGeometry>
        </mxCell>
        <mxCell id="WusB1_47_Qe87K__4kS_-10" value="accept()" style="whiteSpace=wrap;html=1;rounded=1;" parent="E7JEQy9dzRYhBQNzx4xL-1" vertex="1">
          <mxGeometry x="80" y="420" width="80" height="30" as="geometry" />
        </mxCell>
        <mxCell id="WusB1_47_Qe87K__4kS_-11" value="" style="edgeStyle=orthogonalEdgeStyle;rounded=0;orthogonalLoop=1;jettySize=auto;html=1;" parent="E7JEQy9dzRYhBQNzx4xL-1" source="WusB1_47_Qe87K__4kS_-13" target="WusB1_47_Qe87K__4kS_-18" edge="1">
          <mxGeometry relative="1" as="geometry">
            <Array as="points">
              <mxPoint x="120" y="630" />
              <mxPoint x="120" y="630" />
            </Array>
          </mxGeometry>
        </mxCell>
        <mxCell id="WusB1_47_Qe87K__4kS_-12" value="处理请求" style="edgeLabel;html=1;align=center;verticalAlign=middle;resizable=0;points=[];" parent="WusB1_47_Qe87K__4kS_-11" vertex="1" connectable="0">
          <mxGeometry x="-0.135" y="1" relative="1" as="geometry">
            <mxPoint as="offset" />
          </mxGeometry>
        </mxCell>
        <mxCell id="WusB1_47_Qe87K__4kS_-13" value="read()" style="whiteSpace=wrap;html=1;rounded=1;" parent="E7JEQy9dzRYhBQNzx4xL-1" vertex="1">
          <mxGeometry x="80" y="540" width="80" height="30" as="geometry" />
        </mxCell>
        <mxCell id="WusB1_47_Qe87K__4kS_-14" style="edgeStyle=elbowEdgeStyle;rounded=0;orthogonalLoop=1;jettySize=auto;html=1;exitX=0;exitY=0.5;exitDx=0;exitDy=0;entryX=0;entryY=0.5;entryDx=0;entryDy=0;" parent="E7JEQy9dzRYhBQNzx4xL-1" source="WusB1_47_Qe87K__4kS_-18" target="WusB1_47_Qe87K__4kS_-13" edge="1">
          <mxGeometry relative="1" as="geometry">
            <mxPoint x="79.94444444444446" y="640" as="targetPoint" />
            <Array as="points">
              <mxPoint x="50" y="610" />
            </Array>
          </mxGeometry>
        </mxCell>
        <mxCell id="WusB1_47_Qe87K__4kS_-15" style="edgeStyle=elbowEdgeStyle;rounded=0;orthogonalLoop=1;jettySize=auto;html=1;exitX=1;exitY=0.5;exitDx=0;exitDy=0;entryX=0;entryY=0.5;entryDx=0;entryDy=0;" parent="E7JEQy9dzRYhBQNzx4xL-1" source="WusB1_47_Qe87K__4kS_-18" target="WusB1_47_Qe87K__4kS_-33" edge="1">
          <mxGeometry relative="1" as="geometry" />
        </mxCell>
        <mxCell id="WusB1_47_Qe87K__4kS_-16" value="数据响应" style="edgeLabel;html=1;align=center;verticalAlign=middle;resizable=0;points=[];" parent="WusB1_47_Qe87K__4kS_-15" vertex="1" connectable="0">
          <mxGeometry x="-0.1267" relative="1" as="geometry">
            <mxPoint x="8" as="offset" />
          </mxGeometry>
        </mxCell>
        <mxCell id="WusB1_47_Qe87K__4kS_-17" value="" style="edgeStyle=elbowEdgeStyle;rounded=0;orthogonalLoop=1;jettySize=auto;html=1;" parent="E7JEQy9dzRYhBQNzx4xL-1" source="WusB1_47_Qe87K__4kS_-18" target="WusB1_47_Qe87K__4kS_-34" edge="1">
          <mxGeometry relative="1" as="geometry" />
        </mxCell>
        <mxCell id="WusB1_47_Qe87K__4kS_-18" value="write()" style="whiteSpace=wrap;html=1;rounded=1;" parent="E7JEQy9dzRYhBQNzx4xL-1" vertex="1">
          <mxGeometry x="80" y="610" width="80" height="30" as="geometry" />
        </mxCell>
        <mxCell id="WusB1_47_Qe87K__4kS_-19" value="" style="edgeStyle=orthogonalEdgeStyle;rounded=0;orthogonalLoop=1;jettySize=auto;html=1;" parent="E7JEQy9dzRYhBQNzx4xL-1" source="WusB1_47_Qe87K__4kS_-20" target="WusB1_47_Qe87K__4kS_-22" edge="1">
          <mxGeometry relative="1" as="geometry" />
        </mxCell>
        <mxCell id="WusB1_47_Qe87K__4kS_-20" value="客户端" style="rounded=1;whiteSpace=wrap;html=1;" parent="E7JEQy9dzRYhBQNzx4xL-1" vertex="1">
          <mxGeometry x="280" y="360" width="80" height="30" as="geometry" />
        </mxCell>
        <mxCell id="WusB1_47_Qe87K__4kS_-21" value="" style="edgeStyle=orthogonalEdgeStyle;rounded=0;orthogonalLoop=1;jettySize=auto;html=1;" parent="E7JEQy9dzRYhBQNzx4xL-1" source="WusB1_47_Qe87K__4kS_-22" target="WusB1_47_Qe87K__4kS_-26" edge="1">
          <mxGeometry relative="1" as="geometry" />
        </mxCell>
        <mxCell id="WusB1_47_Qe87K__4kS_-22" value="socket()" style="whiteSpace=wrap;html=1;rounded=1;" parent="E7JEQy9dzRYhBQNzx4xL-1" vertex="1">
          <mxGeometry x="280" y="420" width="80" height="30" as="geometry" />
        </mxCell>
        <mxCell id="WusB1_47_Qe87K__4kS_-23" value="" style="edgeStyle=orthogonalEdgeStyle;rounded=0;orthogonalLoop=1;jettySize=auto;html=1;" parent="E7JEQy9dzRYhBQNzx4xL-1" source="WusB1_47_Qe87K__4kS_-26" target="WusB1_47_Qe87K__4kS_-30" edge="1">
          <mxGeometry relative="1" as="geometry" />
        </mxCell>
        <mxCell id="WusB1_47_Qe87K__4kS_-24" style="edgeStyle=orthogonalEdgeStyle;rounded=0;orthogonalLoop=1;jettySize=auto;html=1;exitX=0;exitY=0.5;exitDx=0;exitDy=0;" parent="E7JEQy9dzRYhBQNzx4xL-1" source="WusB1_47_Qe87K__4kS_-26" edge="1">
          <mxGeometry relative="1" as="geometry">
            <mxPoint x="120" y="495" as="targetPoint" />
          </mxGeometry>
        </mxCell>
        <mxCell id="WusB1_47_Qe87K__4kS_-25" value="建立连接&lt;br&gt;TCP三次握手" style="edgeLabel;html=1;align=center;verticalAlign=middle;resizable=0;points=[];" parent="WusB1_47_Qe87K__4kS_-24" vertex="1" connectable="0">
          <mxGeometry x="-0.1116" y="-1" relative="1" as="geometry">
            <mxPoint x="11" y="1" as="offset" />
          </mxGeometry>
        </mxCell>
        <mxCell id="WusB1_47_Qe87K__4kS_-26" value="connect()" style="whiteSpace=wrap;html=1;rounded=1;" parent="E7JEQy9dzRYhBQNzx4xL-1" vertex="1">
          <mxGeometry x="280" y="480" width="80" height="30" as="geometry" />
        </mxCell>
        <mxCell id="WusB1_47_Qe87K__4kS_-27" style="edgeStyle=orthogonalEdgeStyle;rounded=0;orthogonalLoop=1;jettySize=auto;html=1;exitX=0;exitY=0.5;exitDx=0;exitDy=0;entryX=1;entryY=0.5;entryDx=0;entryDy=0;" parent="E7JEQy9dzRYhBQNzx4xL-1" source="WusB1_47_Qe87K__4kS_-30" target="WusB1_47_Qe87K__4kS_-13" edge="1">
          <mxGeometry relative="1" as="geometry" />
        </mxCell>
        <mxCell id="WusB1_47_Qe87K__4kS_-28" value="数据请求" style="edgeLabel;html=1;align=center;verticalAlign=middle;resizable=0;points=[];" parent="WusB1_47_Qe87K__4kS_-27" vertex="1" connectable="0">
          <mxGeometry x="0.18" relative="1" as="geometry">
            <mxPoint x="11" as="offset" />
          </mxGeometry>
        </mxCell>
        <mxCell id="WusB1_47_Qe87K__4kS_-29" value="" style="edgeStyle=elbowEdgeStyle;rounded=0;orthogonalLoop=1;jettySize=auto;html=1;" parent="E7JEQy9dzRYhBQNzx4xL-1" source="WusB1_47_Qe87K__4kS_-30" target="WusB1_47_Qe87K__4kS_-33" edge="1">
          <mxGeometry relative="1" as="geometry" />
        </mxCell>
        <mxCell id="WusB1_47_Qe87K__4kS_-30" value="write()" style="whiteSpace=wrap;html=1;rounded=1;" parent="E7JEQy9dzRYhBQNzx4xL-1" vertex="1">
          <mxGeometry x="280" y="540" width="80" height="30" as="geometry" />
        </mxCell>
        <mxCell id="WusB1_47_Qe87K__4kS_-31" value="" style="edgeStyle=elbowEdgeStyle;rounded=0;orthogonalLoop=1;jettySize=auto;html=1;" parent="E7JEQy9dzRYhBQNzx4xL-1" source="WusB1_47_Qe87K__4kS_-33" target="WusB1_47_Qe87K__4kS_-35" edge="1">
          <mxGeometry relative="1" as="geometry" />
        </mxCell>
        <mxCell id="WusB1_47_Qe87K__4kS_-32" style="edgeStyle=elbowEdgeStyle;rounded=0;orthogonalLoop=1;jettySize=auto;html=1;exitX=1;exitY=0.5;exitDx=0;exitDy=0;entryX=1;entryY=0.5;entryDx=0;entryDy=0;" parent="E7JEQy9dzRYhBQNzx4xL-1" source="WusB1_47_Qe87K__4kS_-33" target="WusB1_47_Qe87K__4kS_-30" edge="1">
          <mxGeometry relative="1" as="geometry">
            <Array as="points">
              <mxPoint x="390" y="580" />
            </Array>
          </mxGeometry>
        </mxCell>
        <mxCell id="WusB1_47_Qe87K__4kS_-33" value="&lt;span&gt;read()&lt;/span&gt;" style="whiteSpace=wrap;html=1;rounded=1;" parent="E7JEQy9dzRYhBQNzx4xL-1" vertex="1">
          <mxGeometry x="280" y="610" width="80" height="30" as="geometry" />
        </mxCell>
        <mxCell id="WusB1_47_Qe87K__4kS_-34" value="close()" style="whiteSpace=wrap;html=1;rounded=1;" parent="E7JEQy9dzRYhBQNzx4xL-1" vertex="1">
          <mxGeometry x="80" y="670" width="80" height="30" as="geometry" />
        </mxCell>
        <mxCell id="WusB1_47_Qe87K__4kS_-35" value="close()" style="whiteSpace=wrap;html=1;rounded=1;" parent="E7JEQy9dzRYhBQNzx4xL-1" vertex="1">
          <mxGeometry x="280" y="670" width="80" height="30" as="geometry" />
        </mxCell>
        <mxCell id="wP3QUquDREPrtddUEhuR-0" value="" style="edgeStyle=orthogonalEdgeStyle;rounded=0;orthogonalLoop=1;jettySize=auto;html=1;" parent="E7JEQy9dzRYhBQNzx4xL-1" source="wP3QUquDREPrtddUEhuR-1" target="wP3QUquDREPrtddUEhuR-3" edge="1">
          <mxGeometry relative="1" as="geometry" />
        </mxCell>
        <mxCell id="wP3QUquDREPrtddUEhuR-1" value="服务器端" style="rounded=1;whiteSpace=wrap;html=1;" parent="E7JEQy9dzRYhBQNzx4xL-1" vertex="1">
          <mxGeometry x="480" y="290" width="80" height="30" as="geometry" />
        </mxCell>
        <mxCell id="wP3QUquDREPrtddUEhuR-2" value="" style="edgeStyle=orthogonalEdgeStyle;rounded=0;orthogonalLoop=1;jettySize=auto;html=1;" parent="E7JEQy9dzRYhBQNzx4xL-1" source="wP3QUquDREPrtddUEhuR-3" target="wP3QUquDREPrtddUEhuR-5" edge="1">
          <mxGeometry relative="1" as="geometry" />
        </mxCell>
        <mxCell id="wP3QUquDREPrtddUEhuR-3" value="socket()" style="whiteSpace=wrap;html=1;rounded=1;" parent="E7JEQy9dzRYhBQNzx4xL-1" vertex="1">
          <mxGeometry x="480" y="350" width="80" height="30" as="geometry" />
        </mxCell>
        <mxCell id="wP3QUquDREPrtddUEhuR-4" value="" style="edgeStyle=orthogonalEdgeStyle;rounded=0;orthogonalLoop=1;jettySize=auto;html=1;" parent="E7JEQy9dzRYhBQNzx4xL-1" source="wP3QUquDREPrtddUEhuR-5" target="wP3QUquDREPrtddUEhuR-6" edge="1">
          <mxGeometry relative="1" as="geometry" />
        </mxCell>
        <mxCell id="wP3QUquDREPrtddUEhuR-5" value="bind()" style="whiteSpace=wrap;html=1;rounded=1;" parent="E7JEQy9dzRYhBQNzx4xL-1" vertex="1">
          <mxGeometry x="480" y="410" width="80" height="30" as="geometry" />
        </mxCell>
        <mxCell id="wP3QUquDREPrtddUEhuR-6" value="recvfrom()" style="whiteSpace=wrap;html=1;rounded=1;" parent="E7JEQy9dzRYhBQNzx4xL-1" vertex="1">
          <mxGeometry x="480" y="470" width="80" height="30" as="geometry" />
        </mxCell>
        <mxCell id="wP3QUquDREPrtddUEhuR-7" value="" style="edgeStyle=orthogonalEdgeStyle;rounded=0;orthogonalLoop=1;jettySize=auto;html=1;exitX=0.5;exitY=1;exitDx=0;exitDy=0;entryX=0.5;entryY=0;entryDx=0;entryDy=0;" parent="E7JEQy9dzRYhBQNzx4xL-1" source="wP3QUquDREPrtddUEhuR-6" target="wP3QUquDREPrtddUEhuR-14" edge="1">
          <mxGeometry relative="1" as="geometry">
            <mxPoint x="520" y="560" as="sourcePoint" />
            <mxPoint x="520" y="620" as="targetPoint" />
          </mxGeometry>
        </mxCell>
        <mxCell id="wP3QUquDREPrtddUEhuR-8" value="阻塞直到接收到&lt;br&gt;客户端数据" style="edgeLabel;html=1;align=center;verticalAlign=middle;resizable=0;points=[];" parent="wP3QUquDREPrtddUEhuR-7" vertex="1" connectable="0">
          <mxGeometry x="-0.25" y="-1" relative="1" as="geometry">
            <mxPoint x="1" y="-15" as="offset" />
          </mxGeometry>
        </mxCell>
        <mxCell id="wP3QUquDREPrtddUEhuR-9" value="处理客户数据" style="edgeLabel;html=1;align=center;verticalAlign=middle;resizable=0;points=[];" parent="wP3QUquDREPrtddUEhuR-7" vertex="1" connectable="0">
          <mxGeometry x="0.4107" y="-1" relative="1" as="geometry">
            <mxPoint y="2" as="offset" />
          </mxGeometry>
        </mxCell>
        <mxCell id="wP3QUquDREPrtddUEhuR-10" style="edgeStyle=elbowEdgeStyle;rounded=0;orthogonalLoop=1;jettySize=auto;html=1;exitX=1;exitY=0.5;exitDx=0;exitDy=0;entryX=0;entryY=0.5;entryDx=0;entryDy=0;" parent="E7JEQy9dzRYhBQNzx4xL-1" source="wP3QUquDREPrtddUEhuR-14" target="wP3QUquDREPrtddUEhuR-25" edge="1">
          <mxGeometry relative="1" as="geometry" />
        </mxCell>
        <mxCell id="wP3QUquDREPrtddUEhuR-11" value="数据响应" style="edgeLabel;html=1;align=center;verticalAlign=middle;resizable=0;points=[];" parent="wP3QUquDREPrtddUEhuR-10" vertex="1" connectable="0">
          <mxGeometry x="-0.1267" relative="1" as="geometry">
            <mxPoint x="8" as="offset" />
          </mxGeometry>
        </mxCell>
        <mxCell id="wP3QUquDREPrtddUEhuR-12" value="" style="edgeStyle=elbowEdgeStyle;rounded=0;orthogonalLoop=1;jettySize=auto;html=1;" parent="E7JEQy9dzRYhBQNzx4xL-1" source="wP3QUquDREPrtddUEhuR-14" target="wP3QUquDREPrtddUEhuR-26" edge="1">
          <mxGeometry relative="1" as="geometry" />
        </mxCell>
        <mxCell id="wP3QUquDREPrtddUEhuR-13" style="edgeStyle=orthogonalEdgeStyle;rounded=0;orthogonalLoop=1;jettySize=auto;html=1;" parent="E7JEQy9dzRYhBQNzx4xL-1" edge="1">
          <mxGeometry relative="1" as="geometry">
            <mxPoint x="520" y="450" as="targetPoint" />
            <mxPoint x="520" y="650" as="sourcePoint" />
            <Array as="points">
              <mxPoint x="480" y="650" />
              <mxPoint x="450" y="650" />
              <mxPoint x="450" y="450" />
            </Array>
          </mxGeometry>
        </mxCell>
        <mxCell id="wP3QUquDREPrtddUEhuR-14" value="sendto()" style="whiteSpace=wrap;html=1;rounded=1;" parent="E7JEQy9dzRYhBQNzx4xL-1" vertex="1">
          <mxGeometry x="480" y="610" width="80" height="30" as="geometry" />
        </mxCell>
        <mxCell id="wP3QUquDREPrtddUEhuR-15" value="" style="edgeStyle=orthogonalEdgeStyle;rounded=0;orthogonalLoop=1;jettySize=auto;html=1;" parent="E7JEQy9dzRYhBQNzx4xL-1" source="wP3QUquDREPrtddUEhuR-16" target="wP3QUquDREPrtddUEhuR-18" edge="1">
          <mxGeometry relative="1" as="geometry" />
        </mxCell>
        <mxCell id="wP3QUquDREPrtddUEhuR-16" value="客户端" style="rounded=1;whiteSpace=wrap;html=1;" parent="E7JEQy9dzRYhBQNzx4xL-1" vertex="1">
          <mxGeometry x="680" y="410" width="80" height="30" as="geometry" />
        </mxCell>
        <mxCell id="wP3QUquDREPrtddUEhuR-17" value="" style="edgeStyle=orthogonalEdgeStyle;rounded=0;orthogonalLoop=1;jettySize=auto;html=1;" parent="E7JEQy9dzRYhBQNzx4xL-1" source="wP3QUquDREPrtddUEhuR-18" target="wP3QUquDREPrtddUEhuR-22" edge="1">
          <mxGeometry relative="1" as="geometry" />
        </mxCell>
        <mxCell id="wP3QUquDREPrtddUEhuR-18" value="socket()" style="whiteSpace=wrap;html=1;rounded=1;" parent="E7JEQy9dzRYhBQNzx4xL-1" vertex="1">
          <mxGeometry x="680" y="470" width="80" height="30" as="geometry" />
        </mxCell>
        <mxCell id="wP3QUquDREPrtddUEhuR-19" style="rounded=0;orthogonalLoop=1;jettySize=auto;html=1;exitX=0;exitY=0.5;exitDx=0;exitDy=0;" parent="E7JEQy9dzRYhBQNzx4xL-1" source="wP3QUquDREPrtddUEhuR-22" edge="1">
          <mxGeometry relative="1" as="geometry">
            <mxPoint x="520" y="559" as="targetPoint" />
            <Array as="points">
              <mxPoint x="530" y="559" />
            </Array>
          </mxGeometry>
        </mxCell>
        <mxCell id="wP3QUquDREPrtddUEhuR-20" value="数据请求" style="edgeLabel;html=1;align=center;verticalAlign=middle;resizable=0;points=[];" parent="wP3QUquDREPrtddUEhuR-19" vertex="1" connectable="0">
          <mxGeometry x="-0.1116" y="-1" relative="1" as="geometry">
            <mxPoint x="11" y="1" as="offset" />
          </mxGeometry>
        </mxCell>
        <mxCell id="wP3QUquDREPrtddUEhuR-21" value="" style="edgeStyle=orthogonalEdgeStyle;rounded=0;orthogonalLoop=1;jettySize=auto;html=1;" parent="E7JEQy9dzRYhBQNzx4xL-1" source="wP3QUquDREPrtddUEhuR-22" target="wP3QUquDREPrtddUEhuR-25" edge="1">
          <mxGeometry relative="1" as="geometry" />
        </mxCell>
        <mxCell id="wP3QUquDREPrtddUEhuR-22" value="sendto()" style="whiteSpace=wrap;html=1;rounded=1;" parent="E7JEQy9dzRYhBQNzx4xL-1" vertex="1">
          <mxGeometry x="680" y="544" width="80" height="30" as="geometry" />
        </mxCell>
        <mxCell id="wP3QUquDREPrtddUEhuR-23" value="" style="edgeStyle=elbowEdgeStyle;rounded=0;orthogonalLoop=1;jettySize=auto;html=1;" parent="E7JEQy9dzRYhBQNzx4xL-1" source="wP3QUquDREPrtddUEhuR-25" target="wP3QUquDREPrtddUEhuR-27" edge="1">
          <mxGeometry relative="1" as="geometry" />
        </mxCell>
        <mxCell id="wP3QUquDREPrtddUEhuR-24" style="edgeStyle=orthogonalEdgeStyle;rounded=0;orthogonalLoop=1;jettySize=auto;html=1;" parent="E7JEQy9dzRYhBQNzx4xL-1" edge="1">
          <mxGeometry relative="1" as="geometry">
            <mxPoint x="720" y="520" as="targetPoint" />
            <mxPoint x="720" y="650" as="sourcePoint" />
            <Array as="points">
              <mxPoint x="720" y="650" />
              <mxPoint x="790" y="650" />
              <mxPoint x="790" y="520" />
            </Array>
          </mxGeometry>
        </mxCell>
        <mxCell id="wP3QUquDREPrtddUEhuR-25" value="recvfrom()" style="whiteSpace=wrap;html=1;rounded=1;" parent="E7JEQy9dzRYhBQNzx4xL-1" vertex="1">
          <mxGeometry x="680" y="610" width="80" height="30" as="geometry" />
        </mxCell>
        <mxCell id="wP3QUquDREPrtddUEhuR-26" value="close()" style="whiteSpace=wrap;html=1;rounded=1;" parent="E7JEQy9dzRYhBQNzx4xL-1" vertex="1">
          <mxGeometry x="480" y="670" width="80" height="30" as="geometry" />
        </mxCell>
        <mxCell id="wP3QUquDREPrtddUEhuR-27" value="close()" style="whiteSpace=wrap;html=1;rounded=1;" parent="E7JEQy9dzRYhBQNzx4xL-1" vertex="1">
          <mxGeometry x="680" y="670" width="80" height="30" as="geometry" />
        </mxCell>
        <mxCell id="wP3QUquDREPrtddUEhuR-28" value="UDP服务器模型" style="text;html=1;align=center;verticalAlign=middle;resizable=0;points=[];autosize=1;strokeColor=none;fontSize=20;" parent="E7JEQy9dzRYhBQNzx4xL-1" vertex="1">
          <mxGeometry x="550" y="730" width="160" height="30" as="geometry" />
        </mxCell>
        <mxCell id="wP3QUquDREPrtddUEhuR-29" value="TCP服务器模型" style="text;html=1;align=center;verticalAlign=middle;resizable=0;points=[];autosize=1;strokeColor=none;fontSize=20;" parent="E7JEQy9dzRYhBQNzx4xL-1" vertex="1">
          <mxGeometry x="140" y="730" width="160" height="30" as="geometry" />
        </mxCell>
      </root>
    </mxGraphModel>
  </diagram>
  <diagram id="O04J9g07B4ofQlzEyz4W" name="exit函数">
    <mxGraphModel dx="1422" dy="832" grid="1" gridSize="10" guides="1" tooltips="1" connect="1" arrows="1" fold="1" page="1" pageScale="1" pageWidth="291" pageHeight="413" math="0" shadow="0">
      <root>
        <mxCell id="lV3idejffVoatj4Nsw5D-0" />
        <mxCell id="lV3idejffVoatj4Nsw5D-1" parent="lV3idejffVoatj4Nsw5D-0" />
        <mxCell id="lV3idejffVoatj4Nsw5D-4" style="edgeStyle=orthogonalEdgeStyle;rounded=0;orthogonalLoop=1;jettySize=auto;html=1;exitX=0.25;exitY=1;exitDx=0;exitDy=0;entryX=0.25;entryY=0;entryDx=0;entryDy=0;fontSize=20;" parent="lV3idejffVoatj4Nsw5D-1" source="lV3idejffVoatj4Nsw5D-2" target="lV3idejffVoatj4Nsw5D-3" edge="1">
          <mxGeometry relative="1" as="geometry" />
        </mxCell>
        <mxCell id="lV3idejffVoatj4Nsw5D-6" value="_exit()" style="edgeLabel;html=1;align=center;verticalAlign=middle;resizable=0;points=[];fontSize=20;" parent="lV3idejffVoatj4Nsw5D-4" vertex="1" connectable="0">
          <mxGeometry x="-0.09" y="-1" relative="1" as="geometry">
            <mxPoint y="17" as="offset" />
          </mxGeometry>
        </mxCell>
        <mxCell id="lV3idejffVoatj4Nsw5D-5" style="edgeStyle=orthogonalEdgeStyle;rounded=0;orthogonalLoop=1;jettySize=auto;html=1;exitX=0.5;exitY=1;exitDx=0;exitDy=0;entryX=0.75;entryY=0;entryDx=0;entryDy=0;fontSize=20;startArrow=none;" parent="lV3idejffVoatj4Nsw5D-1" source="lV3idejffVoatj4Nsw5D-9" target="lV3idejffVoatj4Nsw5D-3" edge="1">
          <mxGeometry relative="1" as="geometry">
            <Array as="points" />
          </mxGeometry>
        </mxCell>
        <mxCell id="lV3idejffVoatj4Nsw5D-2" value="进程运行" style="rounded=1;whiteSpace=wrap;html=1;fontSize=20;" parent="lV3idejffVoatj4Nsw5D-1" vertex="1">
          <mxGeometry x="240" y="200" width="240" height="40" as="geometry" />
        </mxCell>
        <mxCell id="lV3idejffVoatj4Nsw5D-11" value="" style="edgeStyle=orthogonalEdgeStyle;rounded=0;orthogonalLoop=1;jettySize=auto;html=1;fontSize=20;" parent="lV3idejffVoatj4Nsw5D-1" source="lV3idejffVoatj4Nsw5D-3" target="lV3idejffVoatj4Nsw5D-10" edge="1">
          <mxGeometry relative="1" as="geometry" />
        </mxCell>
        <mxCell id="lV3idejffVoatj4Nsw5D-3" value="调用sys_exit" style="rounded=1;whiteSpace=wrap;html=1;fontSize=20;" parent="lV3idejffVoatj4Nsw5D-1" vertex="1">
          <mxGeometry x="240" y="400" width="240" height="40" as="geometry" />
        </mxCell>
        <mxCell id="lV3idejffVoatj4Nsw5D-10" value="程序终止运行" style="rounded=1;whiteSpace=wrap;html=1;fontSize=20;" parent="lV3idejffVoatj4Nsw5D-1" vertex="1">
          <mxGeometry x="240" y="480" width="240" height="40" as="geometry" />
        </mxCell>
        <mxCell id="lV3idejffVoatj4Nsw5D-9" value="&lt;span&gt;清理I/O缓存&lt;/span&gt;" style="rounded=1;whiteSpace=wrap;html=1;fontSize=20;" parent="lV3idejffVoatj4Nsw5D-1" vertex="1">
          <mxGeometry x="360" y="310" width="120" height="40" as="geometry" />
        </mxCell>
        <mxCell id="lV3idejffVoatj4Nsw5D-12" value="" style="edgeStyle=orthogonalEdgeStyle;rounded=0;orthogonalLoop=1;jettySize=auto;html=1;exitX=0.75;exitY=1;exitDx=0;exitDy=0;fontSize=20;endArrow=none;entryX=0.5;entryY=0;entryDx=0;entryDy=0;" parent="lV3idejffVoatj4Nsw5D-1" source="lV3idejffVoatj4Nsw5D-2" target="lV3idejffVoatj4Nsw5D-9" edge="1">
          <mxGeometry relative="1" as="geometry">
            <mxPoint x="420" y="200" as="sourcePoint" />
            <mxPoint x="420" y="280" as="targetPoint" />
          </mxGeometry>
        </mxCell>
        <mxCell id="lV3idejffVoatj4Nsw5D-13" value="exit()" style="edgeLabel;html=1;align=center;verticalAlign=middle;resizable=0;points=[];fontSize=20;" parent="lV3idejffVoatj4Nsw5D-12" vertex="1" connectable="0">
          <mxGeometry x="-0.6443" relative="1" as="geometry">
            <mxPoint y="28" as="offset" />
          </mxGeometry>
        </mxCell>
      </root>
    </mxGraphModel>
  </diagram>
  <diagram id="yaviR65BmUdRxS_t9Y5M" name="菱形继承">
    <mxGraphModel dx="1422" dy="832" grid="1" gridSize="10" guides="1" tooltips="1" connect="1" arrows="1" fold="1" page="1" pageScale="1" pageWidth="291" pageHeight="413" math="0" shadow="0">
      <root>
        <mxCell id="5b2BQyXoDKw_ksfAbvDG-0" />
        <mxCell id="5b2BQyXoDKw_ksfAbvDG-1" parent="5b2BQyXoDKw_ksfAbvDG-0" />
        <mxCell id="5b2BQyXoDKw_ksfAbvDG-6" style="rounded=0;orthogonalLoop=1;jettySize=auto;html=1;exitX=0;exitY=0.5;exitDx=0;exitDy=0;entryX=0.5;entryY=0;entryDx=0;entryDy=0;fontSize=16;" parent="5b2BQyXoDKw_ksfAbvDG-1" source="5b2BQyXoDKw_ksfAbvDG-2" target="5b2BQyXoDKw_ksfAbvDG-3" edge="1">
          <mxGeometry relative="1" as="geometry" />
        </mxCell>
        <mxCell id="5b2BQyXoDKw_ksfAbvDG-7" style="edgeStyle=none;rounded=0;orthogonalLoop=1;jettySize=auto;html=1;exitX=1;exitY=0.5;exitDx=0;exitDy=0;entryX=0.5;entryY=0;entryDx=0;entryDy=0;fontSize=16;" parent="5b2BQyXoDKw_ksfAbvDG-1" source="5b2BQyXoDKw_ksfAbvDG-2" target="5b2BQyXoDKw_ksfAbvDG-4" edge="1">
          <mxGeometry relative="1" as="geometry" />
        </mxCell>
        <mxCell id="5b2BQyXoDKw_ksfAbvDG-2" value="A" style="rounded=1;whiteSpace=wrap;html=1;fontSize=16;" parent="5b2BQyXoDKw_ksfAbvDG-1" vertex="1">
          <mxGeometry x="320" y="200" width="40" height="40" as="geometry" />
        </mxCell>
        <mxCell id="5b2BQyXoDKw_ksfAbvDG-8" style="edgeStyle=none;rounded=0;orthogonalLoop=1;jettySize=auto;html=1;exitX=0.5;exitY=1;exitDx=0;exitDy=0;entryX=0;entryY=0.5;entryDx=0;entryDy=0;fontSize=16;" parent="5b2BQyXoDKw_ksfAbvDG-1" source="5b2BQyXoDKw_ksfAbvDG-3" target="5b2BQyXoDKw_ksfAbvDG-5" edge="1">
          <mxGeometry relative="1" as="geometry" />
        </mxCell>
        <mxCell id="5b2BQyXoDKw_ksfAbvDG-3" value="B" style="rounded=1;whiteSpace=wrap;html=1;fontSize=16;" parent="5b2BQyXoDKw_ksfAbvDG-1" vertex="1">
          <mxGeometry x="240" y="280" width="40" height="40" as="geometry" />
        </mxCell>
        <mxCell id="5b2BQyXoDKw_ksfAbvDG-9" style="edgeStyle=none;rounded=0;orthogonalLoop=1;jettySize=auto;html=1;exitX=0.5;exitY=1;exitDx=0;exitDy=0;entryX=1;entryY=0.5;entryDx=0;entryDy=0;fontSize=16;" parent="5b2BQyXoDKw_ksfAbvDG-1" source="5b2BQyXoDKw_ksfAbvDG-4" target="5b2BQyXoDKw_ksfAbvDG-5" edge="1">
          <mxGeometry relative="1" as="geometry" />
        </mxCell>
        <mxCell id="5b2BQyXoDKw_ksfAbvDG-4" value="C" style="rounded=1;whiteSpace=wrap;html=1;fontSize=16;" parent="5b2BQyXoDKw_ksfAbvDG-1" vertex="1">
          <mxGeometry x="400" y="280" width="40" height="40" as="geometry" />
        </mxCell>
        <mxCell id="5b2BQyXoDKw_ksfAbvDG-5" value="D" style="rounded=1;whiteSpace=wrap;html=1;fontSize=16;" parent="5b2BQyXoDKw_ksfAbvDG-1" vertex="1">
          <mxGeometry x="320" y="360" width="40" height="40" as="geometry" />
        </mxCell>
      </root>
    </mxGraphModel>
  </diagram>
  <diagram id="Rtkk6nF1HY3cbOashuP-" name="类型转换">
    <mxGraphModel dx="1131" dy="832" grid="1" gridSize="10" guides="1" tooltips="1" connect="1" arrows="1" fold="1" page="1" pageScale="1" pageWidth="291" pageHeight="413" math="0" shadow="0">
      <root>
        <mxCell id="0W7PknHDhkN30rtBMya0-0" />
        <mxCell id="0W7PknHDhkN30rtBMya0-1" parent="0W7PknHDhkN30rtBMya0-0" />
        <mxCell id="0W7PknHDhkN30rtBMya0-5" style="edgeStyle=orthogonalEdgeStyle;rounded=0;orthogonalLoop=1;jettySize=auto;html=1;exitX=0.5;exitY=1;exitDx=0;exitDy=0;entryX=0.5;entryY=0;entryDx=0;entryDy=0;endArrow=none;endFill=0;" parent="0W7PknHDhkN30rtBMya0-1" source="0W7PknHDhkN30rtBMya0-3" target="0W7PknHDhkN30rtBMya0-4" edge="1">
          <mxGeometry relative="1" as="geometry" />
        </mxCell>
        <mxCell id="0W7PknHDhkN30rtBMya0-7" value="int()" style="edgeLabel;html=1;align=center;verticalAlign=middle;resizable=0;points=[];" parent="0W7PknHDhkN30rtBMya0-5" vertex="1" connectable="0">
          <mxGeometry x="-0.2" relative="1" as="geometry">
            <mxPoint y="4" as="offset" />
          </mxGeometry>
        </mxCell>
        <mxCell id="0W7PknHDhkN30rtBMya0-3" value="整数" style="rounded=1;whiteSpace=wrap;html=1;" parent="0W7PknHDhkN30rtBMya0-1" vertex="1">
          <mxGeometry x="560" y="400" width="80" height="40" as="geometry" />
        </mxCell>
        <mxCell id="0W7PknHDhkN30rtBMya0-10" style="edgeStyle=orthogonalEdgeStyle;rounded=0;orthogonalLoop=1;jettySize=auto;html=1;exitX=1;exitY=0.5;exitDx=0;exitDy=0;entryX=0;entryY=0.5;entryDx=0;entryDy=0;endArrow=none;endFill=0;" parent="0W7PknHDhkN30rtBMya0-1" source="0W7PknHDhkN30rtBMya0-4" target="0W7PknHDhkN30rtBMya0-9" edge="1">
          <mxGeometry relative="1" as="geometry" />
        </mxCell>
        <mxCell id="0W7PknHDhkN30rtBMya0-11" value="float()" style="edgeLabel;html=1;align=center;verticalAlign=middle;resizable=0;points=[];" parent="0W7PknHDhkN30rtBMya0-10" vertex="1" connectable="0">
          <mxGeometry x="-0.1592" y="-1" relative="1" as="geometry">
            <mxPoint x="5" y="-1" as="offset" />
          </mxGeometry>
        </mxCell>
        <mxCell id="0W7PknHDhkN30rtBMya0-4" value="转换" style="rounded=1;whiteSpace=wrap;html=1;" parent="0W7PknHDhkN30rtBMya0-1" vertex="1">
          <mxGeometry x="560" y="480" width="80" height="40" as="geometry" />
        </mxCell>
        <mxCell id="0W7PknHDhkN30rtBMya0-9" value="浮点数" style="rounded=1;whiteSpace=wrap;html=1;" parent="0W7PknHDhkN30rtBMya0-1" vertex="1">
          <mxGeometry x="700" y="480" width="80" height="40" as="geometry" />
        </mxCell>
        <mxCell id="0W7PknHDhkN30rtBMya0-13" style="edgeStyle=orthogonalEdgeStyle;rounded=0;orthogonalLoop=1;jettySize=auto;html=1;exitX=1;exitY=0.5;exitDx=0;exitDy=0;entryX=0;entryY=0.5;entryDx=0;entryDy=0;endArrow=none;endFill=0;" parent="0W7PknHDhkN30rtBMya0-1" source="0W7PknHDhkN30rtBMya0-12" target="0W7PknHDhkN30rtBMya0-4" edge="1">
          <mxGeometry relative="1" as="geometry">
            <Array as="points">
              <mxPoint x="530" y="500" />
              <mxPoint x="530" y="500" />
            </Array>
          </mxGeometry>
        </mxCell>
        <mxCell id="0W7PknHDhkN30rtBMya0-14" value="str()" style="edgeLabel;html=1;align=center;verticalAlign=middle;resizable=0;points=[];" parent="0W7PknHDhkN30rtBMya0-13" vertex="1" connectable="0">
          <mxGeometry x="-0.1333" y="-1" relative="1" as="geometry">
            <mxPoint y="-1" as="offset" />
          </mxGeometry>
        </mxCell>
        <mxCell id="0W7PknHDhkN30rtBMya0-12" value="字符串" style="rounded=1;whiteSpace=wrap;html=1;" parent="0W7PknHDhkN30rtBMya0-1" vertex="1">
          <mxGeometry x="420" y="480" width="80" height="40" as="geometry" />
        </mxCell>
      </root>
    </mxGraphModel>
  </diagram>
  <diagram id="vyrhQmvmvFGK4vNstlsc" name="PID算法">
    <mxGraphModel dx="1713" dy="832" grid="1" gridSize="10" guides="1" tooltips="1" connect="1" arrows="1" fold="1" page="1" pageScale="1" pageWidth="291" pageHeight="413" math="0" shadow="0">
      <root>
        <mxCell id="JLbR0jEg9hozcWSOAKFY-0" />
        <mxCell id="JLbR0jEg9hozcWSOAKFY-1" parent="JLbR0jEg9hozcWSOAKFY-0" />
        <mxCell id="JLbR0jEg9hozcWSOAKFY-15" style="edgeStyle=orthogonalEdgeStyle;rounded=0;orthogonalLoop=1;jettySize=auto;html=1;exitX=1;exitY=0.5;exitDx=0;exitDy=0;entryX=0.5;entryY=0;entryDx=0;entryDy=0;fontSize=22;" edge="1" parent="JLbR0jEg9hozcWSOAKFY-1" source="JLbR0jEg9hozcWSOAKFY-2" target="JLbR0jEg9hozcWSOAKFY-13">
          <mxGeometry relative="1" as="geometry" />
        </mxCell>
        <mxCell id="JLbR0jEg9hozcWSOAKFY-2" value="比例环节" style="rounded=1;whiteSpace=wrap;html=1;" vertex="1" parent="JLbR0jEg9hozcWSOAKFY-1">
          <mxGeometry x="120" y="220" width="80" height="40" as="geometry" />
        </mxCell>
        <mxCell id="JLbR0jEg9hozcWSOAKFY-14" style="edgeStyle=orthogonalEdgeStyle;rounded=0;orthogonalLoop=1;jettySize=auto;html=1;exitX=1;exitY=0.5;exitDx=0;exitDy=0;entryX=0;entryY=0.5;entryDx=0;entryDy=0;fontSize=22;" edge="1" parent="JLbR0jEg9hozcWSOAKFY-1" source="JLbR0jEg9hozcWSOAKFY-3" target="JLbR0jEg9hozcWSOAKFY-13">
          <mxGeometry relative="1" as="geometry" />
        </mxCell>
        <mxCell id="JLbR0jEg9hozcWSOAKFY-3" value="积分环节" style="rounded=1;whiteSpace=wrap;html=1;" vertex="1" parent="JLbR0jEg9hozcWSOAKFY-1">
          <mxGeometry x="120" y="280" width="80" height="40" as="geometry" />
        </mxCell>
        <mxCell id="JLbR0jEg9hozcWSOAKFY-16" style="edgeStyle=orthogonalEdgeStyle;rounded=0;orthogonalLoop=1;jettySize=auto;html=1;exitX=1;exitY=0.5;exitDx=0;exitDy=0;entryX=0.515;entryY=1.057;entryDx=0;entryDy=0;entryPerimeter=0;fontSize=22;" edge="1" parent="JLbR0jEg9hozcWSOAKFY-1" source="JLbR0jEg9hozcWSOAKFY-4" target="JLbR0jEg9hozcWSOAKFY-13">
          <mxGeometry relative="1" as="geometry" />
        </mxCell>
        <mxCell id="JLbR0jEg9hozcWSOAKFY-4" value="微分环节" style="rounded=1;whiteSpace=wrap;html=1;" vertex="1" parent="JLbR0jEg9hozcWSOAKFY-1">
          <mxGeometry x="120" y="340" width="80" height="40" as="geometry" />
        </mxCell>
        <mxCell id="JLbR0jEg9hozcWSOAKFY-7" style="edgeStyle=orthogonalEdgeStyle;rounded=0;orthogonalLoop=1;jettySize=auto;html=1;exitX=1;exitY=0.5;exitDx=0;exitDy=0;entryX=0;entryY=0.5;entryDx=0;entryDy=0;" edge="1" parent="JLbR0jEg9hozcWSOAKFY-1" source="JLbR0jEg9hozcWSOAKFY-5" target="JLbR0jEg9hozcWSOAKFY-3">
          <mxGeometry relative="1" as="geometry" />
        </mxCell>
        <mxCell id="JLbR0jEg9hozcWSOAKFY-8" style="edgeStyle=orthogonalEdgeStyle;rounded=0;orthogonalLoop=1;jettySize=auto;html=1;exitX=1;exitY=0.5;exitDx=0;exitDy=0;entryX=0;entryY=0.5;entryDx=0;entryDy=0;" edge="1" parent="JLbR0jEg9hozcWSOAKFY-1" source="JLbR0jEg9hozcWSOAKFY-5" target="JLbR0jEg9hozcWSOAKFY-2">
          <mxGeometry relative="1" as="geometry" />
        </mxCell>
        <mxCell id="JLbR0jEg9hozcWSOAKFY-9" style="edgeStyle=orthogonalEdgeStyle;rounded=0;orthogonalLoop=1;jettySize=auto;html=1;exitX=1;exitY=0.5;exitDx=0;exitDy=0;entryX=0;entryY=0.5;entryDx=0;entryDy=0;" edge="1" parent="JLbR0jEg9hozcWSOAKFY-1" source="JLbR0jEg9hozcWSOAKFY-5" target="JLbR0jEg9hozcWSOAKFY-4">
          <mxGeometry relative="1" as="geometry" />
        </mxCell>
        <mxCell id="JLbR0jEg9hozcWSOAKFY-5" value="" style="shape=sumEllipse;perimeter=ellipsePerimeter;whiteSpace=wrap;html=1;backgroundOutline=1;" vertex="1" parent="JLbR0jEg9hozcWSOAKFY-1">
          <mxGeometry y="280" width="40" height="40" as="geometry" />
        </mxCell>
        <mxCell id="JLbR0jEg9hozcWSOAKFY-10" style="edgeStyle=orthogonalEdgeStyle;rounded=0;orthogonalLoop=1;jettySize=auto;html=1;entryX=0;entryY=0.5;entryDx=0;entryDy=0;" edge="1" parent="JLbR0jEg9hozcWSOAKFY-1" target="JLbR0jEg9hozcWSOAKFY-5">
          <mxGeometry relative="1" as="geometry">
            <mxPoint x="-80" y="300" as="sourcePoint" />
          </mxGeometry>
        </mxCell>
        <mxCell id="JLbR0jEg9hozcWSOAKFY-11" value="+" style="text;html=1;align=center;verticalAlign=middle;resizable=0;points=[];autosize=1;strokeColor=none;fontSize=30;" vertex="1" parent="JLbR0jEg9hozcWSOAKFY-1">
          <mxGeometry x="-35" y="270" width="30" height="40" as="geometry" />
        </mxCell>
        <mxCell id="JLbR0jEg9hozcWSOAKFY-12" value="-" style="text;html=1;align=center;verticalAlign=middle;resizable=0;points=[];autosize=1;strokeColor=none;fontSize=30;" vertex="1" parent="JLbR0jEg9hozcWSOAKFY-1">
          <mxGeometry x="30" y="300" width="30" height="40" as="geometry" />
        </mxCell>
        <mxCell id="JLbR0jEg9hozcWSOAKFY-18" value="" style="edgeStyle=orthogonalEdgeStyle;rounded=0;orthogonalLoop=1;jettySize=auto;html=1;fontSize=22;" edge="1" parent="JLbR0jEg9hozcWSOAKFY-1" source="JLbR0jEg9hozcWSOAKFY-13" target="JLbR0jEg9hozcWSOAKFY-17">
          <mxGeometry relative="1" as="geometry" />
        </mxCell>
        <mxCell id="JLbR0jEg9hozcWSOAKFY-13" value="" style="shape=sumEllipse;perimeter=ellipsePerimeter;whiteSpace=wrap;html=1;backgroundOutline=1;" vertex="1" parent="JLbR0jEg9hozcWSOAKFY-1">
          <mxGeometry x="240" y="280" width="40" height="40" as="geometry" />
        </mxCell>
        <mxCell id="JLbR0jEg9hozcWSOAKFY-20" style="edgeStyle=orthogonalEdgeStyle;rounded=0;orthogonalLoop=1;jettySize=auto;html=1;entryX=1;entryY=0.5;entryDx=0;entryDy=0;fontSize=22;" edge="1" parent="JLbR0jEg9hozcWSOAKFY-1" target="JLbR0jEg9hozcWSOAKFY-19">
          <mxGeometry relative="1" as="geometry">
            <mxPoint x="440" y="300" as="sourcePoint" />
            <Array as="points">
              <mxPoint x="440" y="420" />
            </Array>
          </mxGeometry>
        </mxCell>
        <mxCell id="JLbR0jEg9hozcWSOAKFY-22" style="edgeStyle=orthogonalEdgeStyle;rounded=0;orthogonalLoop=1;jettySize=auto;html=1;exitX=1;exitY=0.5;exitDx=0;exitDy=0;fontSize=22;" edge="1" parent="JLbR0jEg9hozcWSOAKFY-1" source="JLbR0jEg9hozcWSOAKFY-17">
          <mxGeometry relative="1" as="geometry">
            <mxPoint x="480" y="299.68965517241384" as="targetPoint" />
          </mxGeometry>
        </mxCell>
        <mxCell id="JLbR0jEg9hozcWSOAKFY-17" value="执行器" style="rounded=1;whiteSpace=wrap;html=1;" vertex="1" parent="JLbR0jEg9hozcWSOAKFY-1">
          <mxGeometry x="320" y="280" width="80" height="40" as="geometry" />
        </mxCell>
        <mxCell id="JLbR0jEg9hozcWSOAKFY-21" style="edgeStyle=orthogonalEdgeStyle;rounded=0;orthogonalLoop=1;jettySize=auto;html=1;exitX=0;exitY=0.5;exitDx=0;exitDy=0;entryX=0.5;entryY=1;entryDx=0;entryDy=0;fontSize=22;" edge="1" parent="JLbR0jEg9hozcWSOAKFY-1" source="JLbR0jEg9hozcWSOAKFY-19" target="JLbR0jEg9hozcWSOAKFY-5">
          <mxGeometry relative="1" as="geometry" />
        </mxCell>
        <mxCell id="JLbR0jEg9hozcWSOAKFY-19" value="传感器" style="rounded=1;whiteSpace=wrap;html=1;" vertex="1" parent="JLbR0jEg9hozcWSOAKFY-1">
          <mxGeometry x="120" y="400" width="80" height="40" as="geometry" />
        </mxCell>
      </root>
    </mxGraphModel>
  </diagram>
  <diagram id="xcuGY_jKh-iTkNKv_S5p" name="map文件分析">
    <mxGraphModel dx="1775" dy="722" grid="1" gridSize="10" guides="1" tooltips="1" connect="1" arrows="1" fold="1" page="1" pageScale="1" pageWidth="413" pageHeight="291" math="0" shadow="0">
      <root>
        <mxCell id="fCuCv85ZaZSo6_VBaFie-0" />
        <mxCell id="fCuCv85ZaZSo6_VBaFie-1" parent="fCuCv85ZaZSo6_VBaFie-0" />
        <mxCell id="fCuCv85ZaZSo6_VBaFie-2" value="data" style="rounded=0;whiteSpace=wrap;html=1;" vertex="1" parent="fCuCv85ZaZSo6_VBaFie-1">
          <mxGeometry x="-280" y="509" width="80" height="40" as="geometry" />
        </mxCell>
        <mxCell id="fCuCv85ZaZSo6_VBaFie-3" value="bss" style="rounded=0;whiteSpace=wrap;html=1;" vertex="1" parent="fCuCv85ZaZSo6_VBaFie-1">
          <mxGeometry x="-280" y="469" width="80" height="40" as="geometry" />
        </mxCell>
        <mxCell id="fCuCv85ZaZSo6_VBaFie-4" value="Heap&lt;br&gt;(0x200)" style="rounded=0;whiteSpace=wrap;html=1;" vertex="1" parent="fCuCv85ZaZSo6_VBaFie-1">
          <mxGeometry x="-280" y="360" width="80" height="109" as="geometry" />
        </mxCell>
        <mxCell id="fCuCv85ZaZSo6_VBaFie-5" value="Stack&lt;br&gt;(0x400)" style="rounded=0;whiteSpace=wrap;html=1;" vertex="1" parent="fCuCv85ZaZSo6_VBaFie-1">
          <mxGeometry x="-280" y="240" width="80" height="120" as="geometry" />
        </mxCell>
        <mxCell id="fCuCv85ZaZSo6_VBaFie-6" value="" style="endArrow=classic;html=1;" edge="1" parent="fCuCv85ZaZSo6_VBaFie-1">
          <mxGeometry width="50" height="50" relative="1" as="geometry">
            <mxPoint x="-290" y="549" as="sourcePoint" />
            <mxPoint x="-290" y="389" as="targetPoint" />
          </mxGeometry>
        </mxCell>
        <mxCell id="fCuCv85ZaZSo6_VBaFie-9" value="" style="rounded=0;orthogonalLoop=1;jettySize=auto;html=1;entryX=1;entryY=1;entryDx=0;entryDy=0;" edge="1" parent="fCuCv85ZaZSo6_VBaFie-1" source="fCuCv85ZaZSo6_VBaFie-8" target="fCuCv85ZaZSo6_VBaFie-2">
          <mxGeometry relative="1" as="geometry" />
        </mxCell>
        <mxCell id="fCuCv85ZaZSo6_VBaFie-8" value="RAM起始地址" style="text;html=1;align=left;verticalAlign=middle;resizable=0;points=[];autosize=1;strokeColor=none;" vertex="1" parent="fCuCv85ZaZSo6_VBaFie-1">
          <mxGeometry x="-155" y="539" width="90" height="20" as="geometry" />
        </mxCell>
        <mxCell id="fCuCv85ZaZSo6_VBaFie-10" value="地&lt;br&gt;址&lt;br&gt;增&lt;br&gt;长&lt;br&gt;方&lt;br&gt;向" style="text;html=1;align=right;verticalAlign=middle;resizable=0;points=[];autosize=1;strokeColor=none;" vertex="1" parent="fCuCv85ZaZSo6_VBaFie-1">
          <mxGeometry x="-320" y="419" width="30" height="90" as="geometry" />
        </mxCell>
        <mxCell id="fCuCv85ZaZSo6_VBaFie-11" value="" style="endArrow=classic;html=1;" edge="1" parent="fCuCv85ZaZSo6_VBaFie-1">
          <mxGeometry width="50" height="50" relative="1" as="geometry">
            <mxPoint x="-190" y="459.5" as="sourcePoint" />
            <mxPoint x="-190" y="380" as="targetPoint" />
          </mxGeometry>
        </mxCell>
        <mxCell id="fCuCv85ZaZSo6_VBaFie-12" value="堆&lt;br&gt;增&lt;br&gt;长&lt;br&gt;方&lt;br&gt;向" style="text;html=1;align=left;verticalAlign=middle;resizable=0;points=[];autosize=1;strokeColor=none;" vertex="1" parent="fCuCv85ZaZSo6_VBaFie-1">
          <mxGeometry x="-185" y="374.5" width="30" height="80" as="geometry" />
        </mxCell>
        <mxCell id="fCuCv85ZaZSo6_VBaFie-13" value="" style="endArrow=classic;html=1;" edge="1" parent="fCuCv85ZaZSo6_VBaFie-1">
          <mxGeometry width="50" height="50" relative="1" as="geometry">
            <mxPoint x="-190" y="260.25" as="sourcePoint" />
            <mxPoint x="-190" y="339.75" as="targetPoint" />
          </mxGeometry>
        </mxCell>
        <mxCell id="fCuCv85ZaZSo6_VBaFie-14" value="栈&lt;br&gt;增&lt;br&gt;长&lt;br&gt;方&lt;br&gt;向" style="text;html=1;align=left;verticalAlign=middle;resizable=0;points=[];autosize=1;strokeColor=none;" vertex="1" parent="fCuCv85ZaZSo6_VBaFie-1">
          <mxGeometry x="-185" y="250" width="30" height="80" as="geometry" />
        </mxCell>
        <mxCell id="fCuCv85ZaZSo6_VBaFie-17" value="" style="edgeStyle=none;rounded=0;orthogonalLoop=1;jettySize=auto;html=1;entryX=1;entryY=1;entryDx=0;entryDy=0;" edge="1" parent="fCuCv85ZaZSo6_VBaFie-1" source="fCuCv85ZaZSo6_VBaFie-16" target="fCuCv85ZaZSo6_VBaFie-4">
          <mxGeometry relative="1" as="geometry" />
        </mxCell>
        <mxCell id="fCuCv85ZaZSo6_VBaFie-16" value="地址0x200106f8" style="text;html=1;align=left;verticalAlign=middle;resizable=0;points=[];autosize=1;strokeColor=none;" vertex="1" parent="fCuCv85ZaZSo6_VBaFie-1">
          <mxGeometry x="-155" y="460" width="100" height="20" as="geometry" />
        </mxCell>
        <mxCell id="fCuCv85ZaZSo6_VBaFie-18" value="" style="edgeStyle=none;rounded=0;orthogonalLoop=1;jettySize=auto;html=1;entryX=1;entryY=1;entryDx=0;entryDy=0;" edge="1" source="fCuCv85ZaZSo6_VBaFie-19" parent="fCuCv85ZaZSo6_VBaFie-1">
          <mxGeometry relative="1" as="geometry">
            <mxPoint x="-200" y="359" as="targetPoint" />
          </mxGeometry>
        </mxCell>
        <mxCell id="fCuCv85ZaZSo6_VBaFie-19" value="地址0x200108f8" style="text;html=1;align=left;verticalAlign=middle;resizable=0;points=[];autosize=1;strokeColor=none;" vertex="1" parent="fCuCv85ZaZSo6_VBaFie-1">
          <mxGeometry x="-155" y="350" width="100" height="20" as="geometry" />
        </mxCell>
        <mxCell id="fCuCv85ZaZSo6_VBaFie-20" value="" style="edgeStyle=none;rounded=0;orthogonalLoop=1;jettySize=auto;html=1;entryX=1;entryY=1;entryDx=0;entryDy=0;" edge="1" source="fCuCv85ZaZSo6_VBaFie-21" parent="fCuCv85ZaZSo6_VBaFie-1">
          <mxGeometry relative="1" as="geometry">
            <mxPoint x="-200" y="239" as="targetPoint" />
          </mxGeometry>
        </mxCell>
        <mxCell id="fCuCv85ZaZSo6_VBaFie-21" value="地址0x20010cf8" style="text;html=1;align=left;verticalAlign=middle;resizable=0;points=[];autosize=1;strokeColor=none;" vertex="1" parent="fCuCv85ZaZSo6_VBaFie-1">
          <mxGeometry x="-155" y="230" width="100" height="20" as="geometry" />
        </mxCell>
      </root>
    </mxGraphModel>
  </diagram>
  <diagram id="0PE07MCrXTyuOezEzhL3" name="大小端模式">
    <mxGraphModel dx="569" dy="333" grid="1" gridSize="10" guides="1" tooltips="1" connect="1" arrows="1" fold="1" page="1" pageScale="1" pageWidth="413" pageHeight="291" math="0" shadow="0">
      <root>
        <mxCell id="nejFKnnHOmcFqqI_3XDa-0" />
        <mxCell id="nejFKnnHOmcFqqI_3XDa-1" parent="nejFKnnHOmcFqqI_3XDa-0" />
        <mxCell id="nejFKnnHOmcFqqI_3XDa-2" value="0x12" style="rounded=0;whiteSpace=wrap;html=1;fillColor=#dae8fc;strokeColor=#6c8ebf;" vertex="1" parent="nejFKnnHOmcFqqI_3XDa-1">
          <mxGeometry x="80" y="80" width="40" height="40" as="geometry" />
        </mxCell>
        <mxCell id="nejFKnnHOmcFqqI_3XDa-4" value="0x34" style="rounded=0;whiteSpace=wrap;html=1;fillColor=#dae8fc;strokeColor=#6c8ebf;" vertex="1" parent="nejFKnnHOmcFqqI_3XDa-1">
          <mxGeometry x="120" y="80" width="40" height="40" as="geometry" />
        </mxCell>
        <mxCell id="nejFKnnHOmcFqqI_3XDa-5" value="0x56" style="rounded=0;whiteSpace=wrap;html=1;fillColor=#dae8fc;strokeColor=#6c8ebf;" vertex="1" parent="nejFKnnHOmcFqqI_3XDa-1">
          <mxGeometry x="160" y="80" width="40" height="40" as="geometry" />
        </mxCell>
        <mxCell id="nejFKnnHOmcFqqI_3XDa-6" value="0x78" style="rounded=0;whiteSpace=wrap;html=1;fillColor=#dae8fc;strokeColor=#6c8ebf;" vertex="1" parent="nejFKnnHOmcFqqI_3XDa-1">
          <mxGeometry x="200" y="80" width="40" height="40" as="geometry" />
        </mxCell>
        <mxCell id="nejFKnnHOmcFqqI_3XDa-7" value="0x78" style="rounded=0;whiteSpace=wrap;html=1;fillColor=#d5e8d4;strokeColor=#82b366;" vertex="1" parent="nejFKnnHOmcFqqI_3XDa-1">
          <mxGeometry x="80" y="140" width="40" height="40" as="geometry" />
        </mxCell>
        <mxCell id="nejFKnnHOmcFqqI_3XDa-8" value="0x56" style="rounded=0;whiteSpace=wrap;html=1;fillColor=#d5e8d4;strokeColor=#82b366;" vertex="1" parent="nejFKnnHOmcFqqI_3XDa-1">
          <mxGeometry x="120" y="140" width="40" height="40" as="geometry" />
        </mxCell>
        <mxCell id="nejFKnnHOmcFqqI_3XDa-9" value="0x34" style="rounded=0;whiteSpace=wrap;html=1;fillColor=#d5e8d4;strokeColor=#82b366;" vertex="1" parent="nejFKnnHOmcFqqI_3XDa-1">
          <mxGeometry x="160" y="140" width="40" height="40" as="geometry" />
        </mxCell>
        <mxCell id="nejFKnnHOmcFqqI_3XDa-10" value="0x12" style="rounded=0;whiteSpace=wrap;html=1;fillColor=#d5e8d4;strokeColor=#82b366;" vertex="1" parent="nejFKnnHOmcFqqI_3XDa-1">
          <mxGeometry x="200" y="140" width="40" height="40" as="geometry" />
        </mxCell>
        <mxCell id="nejFKnnHOmcFqqI_3XDa-15" value="" style="edgeStyle=orthogonalEdgeStyle;rounded=0;orthogonalLoop=1;jettySize=auto;html=1;entryX=1;entryY=0;entryDx=0;entryDy=0;exitX=0.602;exitY=1.012;exitDx=0;exitDy=0;exitPerimeter=0;" edge="1" parent="nejFKnnHOmcFqqI_3XDa-1" source="nejFKnnHOmcFqqI_3XDa-12" target="nejFKnnHOmcFqqI_3XDa-6">
          <mxGeometry relative="1" as="geometry" />
        </mxCell>
        <mxCell id="nejFKnnHOmcFqqI_3XDa-12" value="低地址" style="text;html=1;align=center;verticalAlign=middle;resizable=0;points=[];autosize=1;strokeColor=none;" vertex="1" parent="nejFKnnHOmcFqqI_3XDa-1">
          <mxGeometry x="210" y="30" width="50" height="20" as="geometry" />
        </mxCell>
        <mxCell id="nejFKnnHOmcFqqI_3XDa-13" value="小端模式" style="text;html=1;align=center;verticalAlign=middle;resizable=0;points=[];autosize=1;strokeColor=none;" vertex="1" parent="nejFKnnHOmcFqqI_3XDa-1">
          <mxGeometry x="240" y="90" width="60" height="20" as="geometry" />
        </mxCell>
        <mxCell id="nejFKnnHOmcFqqI_3XDa-14" value="大端模式" style="text;html=1;align=center;verticalAlign=middle;resizable=0;points=[];autosize=1;strokeColor=none;" vertex="1" parent="nejFKnnHOmcFqqI_3XDa-1">
          <mxGeometry x="240" y="150" width="60" height="20" as="geometry" />
        </mxCell>
        <mxCell id="nejFKnnHOmcFqqI_3XDa-16" value="" style="edgeStyle=orthogonalEdgeStyle;rounded=0;orthogonalLoop=1;jettySize=auto;html=1;entryX=1;entryY=0;entryDx=0;entryDy=0;exitX=0.602;exitY=1.012;exitDx=0;exitDy=0;exitPerimeter=0;" edge="1" source="nejFKnnHOmcFqqI_3XDa-17" parent="nejFKnnHOmcFqqI_3XDa-1">
          <mxGeometry relative="1" as="geometry">
            <mxPoint x="80" y="80" as="targetPoint" />
          </mxGeometry>
        </mxCell>
        <mxCell id="nejFKnnHOmcFqqI_3XDa-17" value="高地址" style="text;html=1;align=center;verticalAlign=middle;resizable=0;points=[];autosize=1;strokeColor=none;" vertex="1" parent="nejFKnnHOmcFqqI_3XDa-1">
          <mxGeometry x="50" y="30" width="50" height="20" as="geometry" />
        </mxCell>
      </root>
    </mxGraphModel>
  </diagram>
</mxfile>
